<?xml version="1.0" standalone="no"?>
<!DOCTYPE svg PUBLIC "-//W3C//DTD SVG 20010904//EN"
 "http://www.w3.org/TR/2001/REC-SVG-20010904/DTD/svg10.dtd">
<svg version="1.0" xmlns="http://www.w3.org/2000/svg"
 width="1167.000000pt" height="1167.000000pt" viewBox="0 0 1167.000000 1167.000000"
 preserveAspectRatio="xMidYMid meet">
<metadata>
Created by potrace 1.14, written by Peter Selinger 2001-2017
</metadata>
<g transform="translate(0.000000,1167.000000) scale(0.100000,-0.100000)"
fill="#000000" stroke="none">
<path d="M0 9531 c0 -2028 1 -2139 17 -2146 10 -3 72 -11 138 -16 206 -18 213
-19 190 -35 -16 -12 -17 -14 -2 -14 20 0 23 -16 5 -24 -10 -5 -10 -7 0 -12 6
-3 12 -12 12 -19 0 -10 -12 -13 -42 -10 -48 5 -106 -12 -110 -32 -2 -10 -9
-10 -32 2 -41 22 -67 22 -100 0 -16 -11 -34 -20 -40 -21 -6 0 -17 -2 -23 -2
-10 -2 -13 -128 -13 -595 l0 -594 146 4 c89 2 152 7 160 14 8 6 21 9 29 5 9
-3 23 -2 33 3 26 13 121 39 172 47 25 4 50 10 55 14 19 13 151 32 198 29 26
-2 48 0 50 6 2 5 11 2 21 -8 23 -23 128 -24 150 -1 9 8 16 13 16 10 0 -4 13 8
29 26 23 26 27 37 19 52 -6 11 -6 16 0 12 6 -3 8 23 5 72 -3 67 -1 80 16 97
35 35 46 42 87 56 21 7 45 17 51 22 7 5 79 9 161 8 111 -1 159 2 192 14 35 12
45 13 53 3 5 -8 6 0 3 23 -4 19 -3 39 1 43 5 4 8 29 8 55 0 70 50 112 135 113
81 1 230 22 273 38 60 23 106 70 109 110 1 16 6 28 11 27 5 -1 11 9 12 22 1
14 7 27 13 29 7 2 12 10 12 18 0 24 42 65 61 59 10 -3 36 3 58 15 22 11 46 20
53 20 7 0 19 9 26 20 7 11 17 20 23 20 6 0 25 11 42 24 51 37 64 38 92 9 41
-45 49 -76 36 -140 -15 -76 -14 -94 4 -59 8 15 15 37 15 48 0 12 4 17 12 12 8
-5 9 4 4 34 -4 26 -2 42 4 42 13 0 13 -110 0 -144 -5 -14 -10 -43 -12 -66 -3
-51 -14 -52 -23 0 -7 40 -25 56 -25 21 0 -10 -14 -56 -31 -102 -39 -107 -59
-175 -66 -219 -7 -48 7 -32 18 21 13 57 79 189 94 189 25 0 33 -103 11 -126
-8 -7 -12 -23 -9 -34 7 -27 17 -17 49 46 l24 49 -6 -37 c-4 -27 -3 -38 6 -38
26 0 -22 -225 -71 -326 -16 -34 -29 -75 -30 -90 0 -41 -54 -180 -68 -177 -7 2
-11 -16 -11 -51 0 -30 -4 -66 -9 -79 -5 -13 -16 -82 -25 -153 -17 -136 -43
-263 -57 -278 -4 -5 -5 -50 -2 -100 6 -109 -12 -195 -86 -410 -27 -78 -65
-213 -86 -301 -21 -88 -68 -282 -106 -431 -103 -412 -144 -627 -154 -808 -3
-60 -8 -130 -10 -155 -4 -39 -3 -41 4 -16 5 17 15 62 21 100 22 129 37 202 45
214 4 7 27 21 52 32 44 19 45 20 30 42 -12 19 -13 27 -2 47 15 30 105 383 105
413 0 20 7 51 56 257 14 58 27 112 29 120 19 82 49 179 61 197 7 12 20 60 29
107 8 47 21 102 30 123 9 20 13 43 11 50 -3 7 1 25 9 40 17 32 20 80 5 85 -6
2 -5 20 1 48 30 129 44 177 59 200 10 14 20 32 23 40 3 9 6 4 6 -11 1 -15 -6
-43 -15 -64 -8 -20 -14 -47 -12 -59 3 -18 6 -15 20 15 20 46 34 55 47 30 18
-33 12 -105 -13 -178 -53 -151 -76 -211 -105 -271 -17 -34 -31 -70 -31 -80 0
-10 -7 -28 -16 -41 -9 -13 -21 -42 -26 -65 -5 -22 -24 -90 -42 -151 -19 -60
-37 -139 -41 -175 -8 -80 -37 -203 -69 -290 -14 -36 -27 -81 -31 -100 -4 -19
-16 -66 -27 -103 -10 -38 -17 -71 -15 -74 6 -6 37 56 37 75 0 8 13 40 29 71
16 31 32 76 36 101 3 24 10 49 15 56 19 21 49 124 56 187 4 34 10 67 14 72 4
6 11 21 15 35 13 43 47 110 55 110 5 0 10 -8 12 -17 3 -18 4 -17 68 122 30 67
50 140 50 186 0 20 4 29 13 27 7 -3 13 -29 15 -70 2 -41 8 -68 15 -71 10 -4
13 15 14 70 1 56 6 80 19 95 15 15 15 21 5 27 -10 7 -10 14 3 39 18 35 16 126
-3 145 -6 6 -11 20 -11 31 0 12 -4 28 -9 35 -11 18 4 51 23 51 17 0 52 120 72
250 9 58 25 134 36 170 23 74 26 86 28 120 l2 25 9 -27 c7 -19 6 -36 -5 -63
-9 -21 -16 -61 -15 -89 l0 -51 14 45 c34 114 48 169 55 215 12 69 33 125 47
125 33 0 43 -13 43 -59 0 -26 4 -51 9 -56 5 -6 4 -44 -2 -90 -6 -44 -10 -100
-9 -125 0 -25 1 -74 2 -110 1 -62 2 -64 16 -40 14 24 14 23 13 -30 -3 -102 0
-120 17 -120 15 0 16 -13 12 -117 -4 -92 -9 -119 -22 -128 -17 -13 -23 -40 -6
-30 6 3 10 -4 10 -15 0 -16 -4 -20 -16 -16 -12 5 -15 2 -10 -10 17 -43 18 -67
5 -75 -11 -7 -11 -9 -1 -9 10 0 12 -15 8 -61 -3 -34 -8 -70 -12 -81 -4 -14 -2
-18 5 -14 6 4 11 16 11 27 0 10 9 36 20 56 11 21 20 55 20 75 0 42 6 47 26 20
12 -15 13 -12 14 28 1 25 4 63 9 85 6 37 8 38 14 15 3 -14 9 -52 13 -83 4 -35
13 -63 23 -70 16 -12 22 -29 61 -174 28 -100 78 -509 66 -539 -3 -8 -11 -14
-18 -12 -19 3 -143 -87 -212 -154 -33 -32 -63 -58 -68 -58 -4 0 -8 -4 -8 -9 0
-4 -69 -77 -152 -162 -194 -196 -295 -310 -336 -377 -18 -29 -32 -56 -32 -60
0 -24 -218 -212 -246 -212 -6 0 -19 -10 -30 -21 -23 -27 -18 -25 77 28 41 24
95 61 120 83 24 23 57 48 74 57 35 19 37 21 99 98 26 33 87 101 135 150 92 96
145 163 201 259 62 105 246 278 357 334 38 20 42 20 56 4 13 -15 13 -24 1 -67
-19 -73 -18 -307 2 -376 9 -30 21 -57 28 -61 6 -4 30 -8 54 -8 31 0 42 -4 42
-15 0 -8 5 -15 10 -15 6 0 10 -6 10 -14 0 -16 31 -31 39 -18 3 5 28 12 55 16
56 7 122 -18 153 -58 10 -12 29 -29 43 -39 13 -9 21 -17 16 -17 -5 0 1 -8 12
-19 12 -10 23 -27 25 -38 1 -10 15 -32 30 -49 15 -16 30 -39 33 -51 4 -13 10
-23 15 -23 5 0 9 -8 9 -18 0 -22 66 -96 94 -106 15 -5 16 -9 6 -21 -8 -10 -9
-15 -2 -15 14 0 64 -48 87 -83 9 -15 26 -27 37 -27 19 0 19 0 -1 28 -63 90
-126 244 -115 286 3 13 -3 53 -14 88 -18 56 -27 121 -23 153 1 6 30 -49 65
-121 35 -72 81 -157 103 -190 173 -254 542 -621 737 -733 84 -48 259 -113 369
-137 40 -8 113 -24 162 -35 195 -42 732 -46 995 -8 78 12 366 80 410 97 22 9
19 10 -22 10 -27 0 -48 -5 -48 -10 0 -6 -8 -7 -17 -4 -9 4 -20 1 -24 -5 -4 -7
-35 -12 -73 -13 -42 -1 -70 -6 -75 -14 -4 -7 -15 -10 -24 -6 -10 4 -17 1 -17
-6 0 -9 -16 -11 -55 -8 -30 3 -52 1 -49 -4 3 -4 -16 -9 -43 -9 -74 -2 -95 -5
-138 -17 -76 -22 -707 -18 -765 4 -19 7 -57 18 -85 23 -27 5 -75 17 -105 25
-30 9 -65 16 -78 16 -13 0 -21 4 -18 9 3 5 -13 11 -35 15 -29 5 -43 12 -46 26
-3 11 -10 20 -15 20 -5 0 -7 -4 -3 -9 9 -15 -13 -23 -32 -12 -10 6 -14 11 -9
11 17 0 -17 30 -35 30 -10 0 -29 14 -41 31 -13 17 -34 37 -48 45 -14 7 -19 13
-12 14 17 0 15 30 -3 30 -8 0 -15 5 -15 11 0 7 -10 9 -24 5 -14 -3 -28 -2 -31
4 -3 5 -2 10 3 10 5 0 21 11 36 25 20 18 23 25 11 25 -9 0 -13 5 -10 10 3 6
15 10 26 10 24 0 26 20 2 21 -15 0 -15 2 2 9 11 5 37 11 58 15 39 6 53 35 17
35 -11 0 -20 5 -20 10 0 15 29 12 46 -5 15 -15 51 -12 84 6 12 7 11 8 -5 9
-17 0 -17 2 -5 10 8 5 52 10 98 10 81 0 82 0 82 -25 0 -31 19 -32 51 -4 13 11
18 18 12 14 -17 -8 -16 7 2 31 14 18 14 18 15 -11 l1 -30 39 45 c22 25 40 55
40 66 0 20 7 23 80 29 76 7 80 8 80 31 0 23 2 24 80 24 64 0 80 -3 80 -15 0
-12 16 -15 80 -15 79 0 80 0 80 -25 0 -25 1 -25 80 -25 78 0 80 1 80 24 0 13
-6 27 -12 29 -10 4 -9 8 2 16 13 10 13 12 0 22 -11 8 -12 12 -3 16 21 8 15 43
-7 43 -11 0 -20 -4 -20 -10 0 -5 -18 -10 -40 -10 -22 0 -40 -4 -40 -10 0 -5
-9 -10 -20 -10 -27 0 -25 26 5 55 29 30 35 31 35 5 0 -13 7 -20 20 -20 11 0
20 5 20 10 0 6 14 10 30 10 23 0 30 4 30 20 0 18 7 20 80 20 47 0 80 4 80 10
0 6 33 10 80 10 47 0 80 -4 80 -10 0 -6 -33 -10 -80 -10 l-80 0 0 -80 0 -80
-50 0 c-43 0 -50 -3 -50 -20 0 -11 -4 -20 -10 -20 -5 0 -10 -4 -10 -10 0 -6
27 -10 60 -10 53 0 60 2 60 20 0 18 7 20 80 20 73 0 80 2 80 20 0 11 5 20 10
20 6 0 10 -4 10 -10 0 -5 5 -10 11 -10 7 0 22 -11 35 -25 l24 -26 -28 -11
c-15 -6 -22 -12 -14 -15 7 -3 12 -22 12 -44 0 -41 12 -72 38 -98 13 -13 12
-16 -4 -21 -13 -5 -6 -9 24 -13 40 -7 55 -21 30 -29 -6 -2 -9 -9 -5 -14 4 -7
27 -8 64 -3 36 5 62 4 69 -2 14 -11 34 16 34 45 0 9 3 16 8 17 60 5 89 2 85
-8 -3 -7 3 -12 14 -12 25 0 64 -7 88 -17 24 -9 115 -99 115 -113 0 -5 6 -12
13 -14 8 -4 8 -8 2 -14 -6 -4 -25 -25 -42 -46 -18 -20 -35 -37 -38 -37 -26 1
-35 -3 -56 -21 l-24 -21 30 8 c17 3 46 13 65 21 19 8 70 22 113 32 l77 19 35
-28 c19 -15 55 -50 80 -78 26 -29 98 -85 165 -128 66 -43 120 -80 120 -83 1
-3 3 -28 6 -56 8 -94 4 -157 -17 -233 -23 -85 -23 -85 -73 -193 -40 -88 -72
-194 -90 -302 -8 -44 4 -49 22 -7 6 17 18 44 24 60 7 17 15 30 19 30 3 0 12
22 19 50 7 27 17 50 22 50 4 0 8 9 8 20 0 10 5 32 11 47 6 15 15 37 19 48 5
11 11 46 14 78 4 32 13 74 21 94 8 19 15 46 15 59 0 13 4 24 8 24 4 0 13 15
20 33 11 31 5 112 -14 175 -4 13 -2 22 5 22 12 0 51 -36 51 -47 0 -5 64 -10
143 -11 78 -2 144 -8 145 -13 2 -5 17 -9 33 -9 16 0 29 -5 29 -12 1 -8 6 -6
14 5 13 17 14 17 20 0 6 -13 9 -14 15 -4 9 14 22 -15 71 -149 15 -41 44 -118
63 -170 20 -52 50 -140 67 -194 17 -55 39 -118 49 -140 85 -194 141 -344 141
-378 0 -12 -7 -18 -21 -18 -11 0 -35 -11 -53 -25 -18 -14 -38 -25 -43 -25 -6
0 -52 -33 -103 -72 -96 -75 -293 -221 -368 -272 -23 -16 -42 -30 -42 -32 0
-12 32 -1 66 22 21 15 76 46 122 70 46 23 88 47 95 52 7 5 23 13 36 17 14 4
29 12 35 17 6 5 34 23 61 41 76 49 166 117 201 153 l32 32 20 -37 c12 -20 30
-70 41 -111 12 -41 32 -104 45 -140 87 -236 111 -304 171 -460 36 -96 71 -187
77 -202 9 -25 15 -28 59 -28 27 0 49 5 49 10 0 13 -28 118 -81 305 -22 77 -58
205 -81 285 -38 135 -86 267 -128 350 -22 44 -36 105 -22 96 5 -3 29 -43 52
-88 23 -46 55 -102 71 -126 16 -24 29 -47 29 -52 0 -5 12 -22 26 -37 14 -15
30 -34 35 -43 7 -12 10 -13 18 -1 5 7 6 22 4 32 -3 10 -3 19 0 19 6 0 21 -27
51 -90 20 -41 19 -39 112 -200 174 -301 201 -345 242 -401 24 -32 50 -59 58
-59 10 0 1 18 -24 53 -21 28 -58 86 -82 127 -24 41 -58 102 -77 135 -19 33
-47 89 -62 125 -16 36 -40 90 -54 120 -14 30 -39 91 -57 135 -27 66 -104 249
-140 330 -21 46 -50 131 -50 145 0 9 -9 33 -19 53 -22 44 -52 140 -75 247 -10
41 -28 122 -41 180 -14 58 -27 116 -30 130 -17 85 -26 126 -35 159 -18 67 -40
205 -40 253 0 43 2 48 27 54 14 4 39 7 55 8 15 1 28 3 28 6 0 8 37 9 241 12
169 3 189 1 207 -15 12 -11 51 -24 90 -30 41 -7 79 -20 91 -31 12 -11 21 -15
21 -10 0 5 5 1 11 -9 6 -11 17 -16 28 -12 12 3 22 -3 31 -20 7 -14 18 -25 23
-25 5 0 4 7 -3 15 -25 30 30 61 58 33 9 -9 12 -9 12 0 0 7 13 12 30 12 17 0
30 -4 30 -9 0 -6 9 -9 20 -8 11 1 20 6 20 12 0 14 -39 49 -65 59 -16 6 -17 9
-6 16 8 4 21 4 30 0 9 -5 24 -11 34 -14 9 -3 20 -13 24 -23 4 -9 15 -25 25
-35 10 -10 18 -26 18 -35 0 -16 -2 -16 -11 -3 -9 12 -10 11 -6 -7 3 -16 0 -23
-9 -23 -8 0 -14 -7 -14 -15 0 -31 -28 -13 -73 46 -11 15 -20 20 -25 13 -4 -6
-16 -14 -27 -19 -18 -8 -17 -9 8 -13 16 -2 26 -8 24 -15 -2 -7 0 -22 4 -35 7
-17 4 -28 -11 -44 -11 -12 -20 -29 -20 -37 0 -14 2 -14 11 -1 9 12 10 12 5 -3
-3 -10 -6 -21 -6 -23 0 -2 -7 -4 -16 -4 -17 0 -44 -23 -44 -38 0 -10 -26 -43
-97 -121 -24 -25 -43 -50 -43 -55 0 -28 -375 -402 -434 -433 -29 -15 -51 -69
-31 -77 7 -2 80 39 161 93 194 128 409 251 438 251 9 0 16 3 16 8 0 9 60 37
80 37 9 0 16 11 18 28 4 32 34 67 58 67 8 0 12 -5 9 -10 -3 -6 5 -10 19 -10
14 0 28 5 31 10 3 6 0 10 -8 10 -10 0 -13 7 -10 21 5 19 3 20 -18 14 l-24 -8
20 23 c17 18 21 20 23 6 4 -20 15 -20 53 0 25 12 28 18 18 30 -8 10 -8 14 0
14 6 0 11 -4 11 -9 0 -5 14 -11 30 -13 20 -3 30 0 30 9 0 7 5 13 10 13 6 0 10
-9 10 -20 0 -11 7 -20 15 -20 9 0 12 6 8 17 -5 12 -3 14 8 8 11 -6 12 -5 2 6
-17 17 -17 32 0 24 6 -4 1 2 -12 13 -19 16 -21 20 -8 25 18 7 81 -75 171 -223
32 -52 69 -110 82 -129 27 -38 26 -46 -5 -36 -13 4 -20 14 -18 27 1 11 -4 23
-10 25 -9 3 -13 -6 -13 -26 0 -24 -4 -31 -20 -31 -17 0 -20 7 -20 47 0 51 -16
50 -23 -2 l-4 -30 -8 33 c-10 43 -20 40 -22 -8 -2 -37 -1 -40 20 -36 24 4 25
1 30 -64 2 -24 7 -30 25 -30 12 0 22 -2 22 -4 0 -10 -77 -84 -94 -90 -10 -3
-16 -9 -13 -12 3 -3 23 4 44 15 42 23 97 46 129 56 27 7 72 45 54 45 -7 0 -11
2 -8 5 3 3 12 3 20 0 16 -6 142 -177 223 -304 28 -43 73 -109 101 -147 71 -95
209 -322 255 -419 31 -65 44 -116 73 -270 19 -104 36 -206 38 -225 3 -30 7
-35 30 -38 l27 -3 -6 83 c-7 102 9 97 35 -10 l17 -72 108 0 109 0 -7 32 c-15
79 -112 407 -145 493 -10 28 -40 118 -65 200 -25 83 -53 167 -62 188 -22 52
-12 54 26 6 24 -30 41 -70 63 -147 51 -188 60 -217 71 -227 6 -7 7 0 2 20 -4
17 -13 66 -21 110 -8 44 -16 94 -19 110 -5 27 -4 28 7 12 7 -10 23 -30 35 -44
70 -83 202 -451 244 -680 l13 -73 139 0 138 0 -6 82 c-6 79 -15 154 -35 313
-5 39 -13 86 -19 105 -6 19 -11 49 -11 66 0 17 -11 80 -25 140 -14 60 -41 181
-60 269 -44 210 -55 256 -124 540 -72 294 -91 382 -91 416 0 15 -17 78 -39
140 -56 165 -70 218 -60 225 5 3 9 0 9 -6 0 -24 44 -70 67 -70 95 0 184 -107
148 -176 -8 -16 -15 -34 -15 -39 0 -14 37 -45 54 -45 21 0 90 -82 129 -153 19
-34 44 -80 56 -101 12 -21 38 -78 58 -125 47 -113 101 -221 112 -221 4 0 19
-33 32 -72 13 -40 27 -75 30 -78 4 -3 13 -25 20 -50 12 -40 14 7 17 394 l2
439 -25 33 c-38 49 -97 193 -74 179 5 -4 9 -12 9 -19 0 -8 7 -19 15 -26 9 -7
14 -19 11 -27 -3 -7 3 -19 14 -25 11 -7 20 -18 20 -24 0 -7 7 -25 15 -40 14
-28 15 -24 15 72 0 87 -3 105 -21 128 -11 14 -19 36 -16 48 3 22 4 21 17 -7
l14 -30 4 29 c2 18 -4 39 -17 57 -12 16 -21 30 -21 33 0 8 -80 134 -201 318
-68 103 -142 215 -164 250 -22 35 -63 101 -92 146 -29 46 -53 90 -53 97 0 12
-63 117 -152 253 -20 32 -44 71 -52 87 -9 17 -38 65 -66 108 -27 43 -50 81
-50 84 0 3 -26 45 -57 92 -32 47 -60 91 -63 96 -3 6 -29 49 -58 95 -69 110
-139 225 -181 297 -71 124 -252 473 -291 563 -23 52 -61 140 -85 195 -48 108
-78 191 -130 355 -18 58 -50 152 -70 210 -20 58 -66 191 -101 295 -36 105 -75
219 -88 255 -53 144 -88 235 -110 284 -13 28 -40 93 -60 145 -20 51 -46 112
-56 135 -48 102 -110 282 -139 399 -17 70 -36 139 -42 154 -5 14 -10 41 -11
59 -1 18 -5 31 -9 28 -5 -3 -11 8 -14 23 -3 15 -10 43 -14 61 -6 19 -5 30 0
26 12 -7 11 16 -2 54 -6 18 -16 29 -22 25 -6 -4 -8 2 -4 17 3 13 -2 48 -12 79
-62 188 -93 322 -95 418 -2 54 -6 125 -10 158 -6 51 -4 65 13 93 18 28 26 32
68 33 116 2 172 49 102 85 -18 9 -58 34 -89 54 -30 21 -81 46 -113 56 -52 16
-57 20 -57 46 0 17 -4 27 -10 23 -11 -7 -12 17 -1 54 9 34 88 53 231 55 105 1
118 3 145 24 17 13 38 38 47 55 18 34 24 82 9 73 -5 -3 -11 7 -14 22 -6 33 5
57 56 113 9 10 14 19 10 20 -22 2 68 28 99 28 72 2 126 22 139 53 6 15 17 28
23 28 7 0 7 3 -1 8 -16 10 -44 78 -36 86 4 3 1 6 -6 6 -7 0 -10 4 -7 9 3 5 -1
11 -9 15 -8 3 -21 21 -29 41 -8 19 -23 38 -33 41 -10 3 -36 14 -58 25 -48 23
-75 24 -75 4 0 -27 -18 -16 -22 14 -5 31 16 51 51 51 11 0 35 18 53 40 28 32
37 37 48 27 10 -9 11 -9 6 1 -4 6 -2 12 3 12 6 0 11 7 11 15 0 11 11 15 40 15
l40 0 -16 25 c-9 14 -13 25 -10 25 4 0 2 9 -4 20 -9 17 -7 20 15 26 14 3 34
19 46 35 11 16 29 29 40 29 11 0 37 11 59 25 22 14 44 25 49 25 17 0 71 64 71
84 0 26 19 39 95 61 45 13 69 27 97 57 20 22 37 43 36 47 -2 18 4 32 27 59 29
35 86 49 129 32 63 -23 146 -126 146 -179 0 -60 -16 -79 -93 -116 -81 -39
-133 -44 -190 -20 -35 14 -35 14 -45 -14 -6 -15 -6 -34 -2 -42 13 -19 5 -27
-64 -59 -47 -22 -78 -30 -120 -30 -52 0 -57 -2 -67 -27 -5 -14 -11 -45 -12
-67 -1 -23 -12 -58 -24 -78 -12 -21 -18 -40 -13 -43 23 -14 170 12 211 38 13
8 41 20 61 26 20 7 54 27 75 46 21 19 45 40 53 47 18 17 99 48 123 48 10 0 24
-6 31 -12 31 -31 82 -64 118 -78 37 -14 41 -18 44 -58 3 -34 0 -46 -18 -60
-84 -66 -126 -132 -112 -175 4 -11 8 -41 9 -66 1 -25 5 -57 9 -71 13 -53 46
-272 46 -308 0 -20 -9 -61 -20 -90 -11 -29 -20 -67 -20 -85 0 -18 -5 -38 -11
-44 -6 -6 -14 -53 -16 -105 -4 -76 -9 -100 -29 -130 -26 -40 -31 -42 -139 -59
-99 -15 -113 -13 -142 22 -31 37 -55 36 -145 -5 -31 -14 -61 -26 -67 -26 -21
0 -49 -52 -56 -106 -7 -56 -18 -85 -42 -112 -7 -7 -13 -22 -13 -32 0 -16 -52
-50 -78 -50 -6 0 -23 16 -39 35 -87 108 -99 116 -155 101 -19 -6 -31 -19 -40
-42 -6 -19 -16 -34 -20 -34 -4 0 -8 -6 -8 -13 0 -8 -9 -22 -20 -32 -22 -20
-27 -64 -8 -83 7 -7 24 -12 39 -12 18 0 41 -15 73 -45 25 -25 46 -50 46 -55 0
-11 78 -90 90 -90 5 0 10 -10 12 -22 2 -13 11 -24 22 -26 24 -5 77 -58 110
-111 15 -22 32 -41 40 -41 7 0 38 11 67 24 62 28 99 32 183 21 74 -10 86 3 86
86 0 71 12 100 52 124 50 29 178 6 178 -32 0 -6 14 -24 30 -40 16 -15 30 -32
30 -37 0 -14 -51 -69 -74 -81 -27 -14 -32 -48 -12 -90 10 -20 16 -61 16 -107
1 -108 23 -128 169 -148 73 -10 74 -10 121 20 26 16 51 30 57 30 6 0 16 7 23
15 22 27 50 16 111 -46 72 -72 80 -70 90 29 11 106 39 243 56 275 23 45 80 97
105 97 45 0 75 -50 87 -147 29 -221 33 -249 43 -261 14 -16 4 -174 -17 -267
-8 -39 -17 -79 -20 -90 -2 -11 -14 -31 -25 -43 -13 -13 -22 -39 -24 -65 -2
-23 -9 -57 -16 -75 -20 -53 -8 -147 29 -225 17 -37 34 -81 38 -97 6 -35 45
-80 68 -80 17 0 91 44 96 57 2 4 28 28 57 52 52 43 65 48 150 58 l42 5 0 285
c0 260 -2 287 -17 299 -10 7 -28 14 -40 14 -12 0 -37 13 -56 29 -39 35 -78 47
-105 32 -29 -16 -72 20 -72 60 0 33 15 53 47 63 42 13 91 114 63 131 -15 9
-12 72 5 106 9 16 34 43 56 59 l40 29 35 -20 c19 -10 37 -19 39 -19 3 0 5 81
5 181 0 170 -1 183 -22 212 -29 41 -29 152 2 203 18 32 20 52 20 203 l0 168
-92 8 c-51 4 -114 9 -140 10 -25 2 -51 5 -56 9 -12 7 -52 -66 -52 -96 0 -15
-16 -40 -45 -69 -24 -24 -45 -50 -45 -57 0 -7 -12 -17 -26 -22 -15 -6 -38 -19
-52 -30 -13 -11 -32 -20 -42 -20 -9 0 -27 -9 -40 -20 -13 -11 -27 -20 -31 -20
-16 0 -59 -51 -65 -78 -4 -15 -15 -47 -24 -72 -48 -122 -83 -248 -82 -295 2
-56 -14 -125 -28 -125 -6 0 -10 -6 -10 -14 0 -23 -36 -29 -64 -11 -47 31 -106
147 -97 193 1 6 -3 12 -9 12 -5 0 -10 7 -10 15 0 25 -29 29 -48 8 -34 -38
-165 -66 -176 -37 -3 8 -16 19 -30 25 -38 18 -48 54 -47 168 1 57 3 106 5 110
3 3 7 26 11 51 7 45 30 100 48 111 13 9 136 -25 178 -49 26 -14 40 -34 62 -90
16 -40 33 -72 38 -72 12 0 15 79 5 138 -7 37 -6 67 3 101 17 67 14 291 -5 431
-17 124 -16 167 16 355 11 66 25 153 31 193 8 54 16 75 30 83 11 5 24 7 30 4
5 -4 35 5 65 20 54 27 54 27 92 8 31 -15 45 -34 90 -123 29 -57 57 -107 62
-110 5 -3 14 -17 20 -30 l10 -25 -5 27 c-4 20 0 30 15 38 11 6 26 10 33 8 27
-5 92 15 122 38 18 13 36 24 40 24 5 0 20 10 34 23 41 37 154 106 181 110 13
2 26 9 27 14 2 6 12 9 22 6 10 -2 25 3 35 12 15 15 16 110 16 1141 l0 1124
-1986 0 -1985 0 31 -32 c46 -49 78 -119 72 -159 -6 -40 -29 -79 -47 -79 -21 0
-62 -38 -79 -75 -10 -21 -34 -45 -61 -61 -26 -15 -45 -33 -44 -42 0 -10 31
-44 69 -77 38 -33 85 -82 106 -110 21 -27 62 -72 91 -98 29 -27 74 -77 100
-110 26 -34 51 -66 56 -72 11 -14 70 -105 82 -127 5 -10 13 -18 17 -18 5 0 8
-7 8 -15 0 -18 -17 -20 -23 -2 -2 6 -7 9 -11 6 -10 -9 112 -94 157 -108 39
-13 63 -43 58 -73 -3 -22 17 -24 25 -3 5 12 10 13 20 4 13 -11 10 -34 -4 -25
-13 8 -11 -94 2 -131 7 -21 11 -49 9 -64 -2 -17 6 -34 25 -55 16 -16 34 -44
42 -63 7 -18 24 -44 37 -57 13 -13 26 -37 29 -54 4 -16 10 -30 14 -30 4 0 12
-18 19 -40 6 -22 16 -40 21 -40 9 0 33 -70 26 -77 -1 -2 -9 9 -17 24 -8 15
-22 37 -31 48 -23 28 -104 184 -112 218 -3 15 -11 27 -16 27 -18 0 -16 -9 42
-200 6 -19 35 -88 65 -153 77 -166 59 -167 -25 -2 -17 33 -36 78 -43 100 -7
22 -23 57 -36 78 -13 20 -21 37 -17 37 3 0 -4 15 -15 34 -23 36 -27 51 -11 41
16 -10 -9 50 -31 73 -10 12 -19 24 -19 28 0 18 -82 174 -109 208 -17 21 -31
42 -31 47 0 4 -6 14 -13 21 -6 7 -41 49 -77 93 -36 44 -111 127 -167 185 -56
58 -120 128 -144 155 -23 28 -43 52 -45 54 -2 2 -10 -1 -18 -8 -11 -10 -25 -1
-74 44 -33 30 -62 55 -66 55 -3 0 -41 23 -83 50 -42 28 -84 50 -92 50 -17 -1
-6 -11 94 -90 78 -61 151 -129 249 -228 44 -46 100 -102 123 -125 24 -22 43
-44 43 -49 0 -10 0 -10 60 -82 23 -27 39 -54 37 -60 -3 -7 4 -23 14 -37 l20
-24 -6 30 c-6 28 -6 29 9 11 9 -11 26 -31 39 -45 13 -15 26 -33 30 -41 16 -33
33 -57 55 -80 12 -14 25 -35 28 -47 4 -13 10 -23 15 -23 5 0 9 -6 9 -13 0 -17
28 -75 40 -82 5 -3 21 -42 36 -88 15 -45 37 -101 50 -125 13 -23 24 -48 24
-54 0 -6 14 -41 31 -77 43 -91 79 -194 85 -243 3 -23 7 -45 10 -50 20 -32 94
-255 94 -282 0 -12 5 -27 11 -33 6 -6 9 -21 7 -34 -3 -19 -7 -14 -20 26 -15
47 -16 48 -17 18 -1 -32 -21 -48 -21 -17 0 20 -60 75 -73 67 -6 -4 -8 0 -4 10
3 10 3 17 -2 17 -4 0 -20 39 -36 88 -16 48 -38 107 -48 131 -11 24 -35 87 -54
140 -19 53 -41 113 -49 134 -8 21 -15 46 -17 55 -1 9 -7 24 -12 32 -6 8 -22
37 -36 65 -14 27 -41 77 -60 110 -20 33 -42 71 -50 85 -8 14 -17 27 -20 30 -9
7 -49 97 -49 109 0 6 -4 11 -10 11 -5 0 -10 7 -10 16 0 15 -55 103 -109 174
-10 14 -40 59 -67 100 -55 86 -99 138 -164 194 -25 21 -49 50 -54 65 -5 14
-24 42 -43 61 -18 19 -33 38 -33 43 0 4 -7 7 -16 7 -9 0 -26 10 -38 23 -26 26
-74 61 -98 70 -10 3 -18 13 -18 21 0 17 -24 28 -45 20 -9 -4 -15 0 -15 8 0 8
-16 23 -35 34 -20 10 -33 24 -31 30 3 7 -26 28 -67 48 -83 42 -101 54 -110 79
-3 9 -13 17 -22 17 -8 0 -15 4 -15 9 0 5 -15 14 -32 21 -18 7 -64 27 -103 45
-38 18 -114 45 -167 61 -54 15 -98 31 -98 36 0 4 -8 8 -17 8 -9 0 -14 2 -11 5
3 3 34 -2 69 -10 35 -9 82 -21 104 -26 21 -6 44 -14 50 -19 6 -5 47 -22 90
-39 44 -16 114 -45 155 -64 41 -19 113 -52 160 -73 47 -20 109 -52 138 -71 29
-18 58 -33 65 -33 22 0 160 -91 199 -131 38 -39 78 -66 78 -52 0 5 -16 26 -35
48 -19 22 -33 45 -31 52 3 6 -46 46 -107 89 -62 43 -114 80 -117 83 -3 3 -21
14 -40 24 -55 28 -78 42 -98 60 -10 10 -23 17 -29 17 -6 0 -13 7 -17 15 -3 8
-14 15 -25 15 -10 0 -21 6 -24 14 -3 7 -18 16 -34 20 -15 4 -50 13 -78 20 -27
8 -75 19 -105 26 -62 14 -140 55 -140 73 0 29 -141 60 -610 138 -30 5 -166 9
-301 8 -239 0 -247 -1 -298 -25 -29 -13 -60 -24 -69 -24 -8 0 -34 -11 -56 -24
-23 -13 -52 -27 -66 -31 -14 -4 -58 -30 -99 -57 -60 -40 -81 -48 -110 -46 -35
3 -36 4 -39 49 -2 26 6 83 17 127 25 97 25 92 2 92 -14 0 -22 -15 -35 -67 -42
-163 -75 -233 -108 -233 -18 0 -20 57 -5 129 9 42 18 97 20 124 l5 47 -317 0
-316 0 28 -25 c15 -14 27 -32 27 -40 0 -14 52 -45 75 -45 7 0 15 -9 18 -20 4
-15 14 -20 44 -21 21 0 32 -3 25 -6 -9 -4 -7 -10 8 -23 l21 -19 -20 -23 c-12
-13 -27 -30 -35 -39 -9 -12 -25 -15 -55 -12 -34 3 -40 1 -35 -12 8 -19 -43
-68 -93 -90 -17 -8 -44 -33 -60 -55 -15 -22 -36 -42 -46 -46 -9 -3 -22 -14
-27 -25 -13 -23 -30 -25 -30 -4 0 8 6 15 13 15 7 0 21 14 30 30 18 30 18 30
-5 30 -13 0 -40 -16 -61 -35 -21 -19 -43 -33 -48 -30 -5 4 -13 -5 -18 -19 -6
-13 -19 -27 -30 -31 -11 -3 -23 -14 -26 -24 -12 -38 -48 -59 -115 -66 -36 -4
-96 -10 -133 -14 -53 -5 -81 -3 -130 12 -86 26 -187 74 -193 92 -4 8 -14 15
-23 15 -28 0 -38 71 -30 208 8 127 27 189 55 178 9 -3 14 1 14 14 0 11 4 20 9
20 5 0 16 17 24 38 9 20 16 31 16 25 1 -20 18 -15 24 6 2 11 0 24 -6 30 -8 8
-533 11 -1819 11 l-1808 0 0 -2139z m4680 1959 c0 -5 -2 -10 -4 -10 -3 0 -8 5
-11 10 -3 6 -1 10 4 10 6 0 11 -4 11 -10z m2285 -297 c27 -14 79 -44 115 -68
36 -23 85 -54 110 -67 48 -27 120 -86 120 -100 0 -17 -26 -7 -35 15 -6 14 -44
39 -105 69 -111 55 -182 96 -213 121 -12 11 -55 37 -94 59 -40 22 -73 41 -73
43 0 5 117 -43 175 -72z m-199 -12 c49 -21 115 -54 146 -72 31 -19 83 -49 115
-68 32 -19 67 -42 78 -51 11 -10 45 -31 76 -47 30 -16 53 -35 51 -41 -2 -7 2
-10 12 -6 18 7 29 -5 186 -191 65 -77 132 -153 149 -169 17 -17 31 -35 31 -40
0 -20 174 -206 192 -206 4 0 8 -14 8 -30 0 -30 5 -40 44 -83 13 -14 16 -22 8
-25 -18 -6 -15 -20 12 -55 13 -18 27 -42 31 -54 12 -40 27 -26 20 18 -5 29 -4
40 4 35 6 -4 11 -13 11 -20 0 -7 14 -23 30 -36 17 -13 30 -31 30 -40 0 -10 7
-23 15 -30 9 -7 13 -20 10 -29 -3 -10 3 -26 12 -37 10 -11 19 -26 21 -34 2
-14 23 -63 72 -175 68 -153 91 -220 85 -244 -7 -27 -5 -38 6 -34 4 1 9 -6 12
-17 3 -13 1 -17 -9 -13 -10 3 -14 -3 -14 -20 0 -42 -17 -40 -34 3 -9 22 -24
48 -34 58 -18 18 -37 104 -33 148 1 12 -7 38 -18 58 -12 20 -21 43 -21 51 0 8
-4 15 -10 15 -5 0 -10 -9 -10 -19 0 -11 5 -23 10 -26 12 -8 13 -45 1 -45 -5 0
-12 12 -16 27 -4 19 -9 23 -15 14 -5 -10 -10 -4 -15 18 -4 18 -4 35 -1 38 3 3
-1 15 -9 25 -7 11 -11 27 -8 34 7 19 23 7 23 -18 0 -12 3 -18 7 -15 3 4 12 2
19 -4 10 -8 11 -5 7 13 -4 13 -12 32 -20 44 -7 11 -10 24 -6 28 5 4 -3 6 -16
4 -13 -1 -26 3 -28 10 -3 6 2 12 11 12 21 0 20 16 -1 32 -10 7 -25 27 -33 43
-17 36 -61 92 -67 85 -2 -3 -12 10 -23 28 -11 18 -25 30 -31 27 -6 -5 -6 -12
3 -23 12 -15 11 -16 -4 -3 -13 10 -15 18 -8 31 15 27 13 47 -2 32 -17 -17 -28
-15 -21 4 3 9 -7 31 -26 54 -17 21 -31 42 -31 45 0 4 -18 23 -40 44 -22 20
-40 42 -40 48 0 6 -13 24 -29 40 -15 16 -36 44 -46 63 -11 22 -20 30 -23 21
-2 -7 0 -16 5 -20 6 -3 13 -16 17 -27 5 -16 2 -23 -12 -26 -22 -6 -71 27 -59
39 5 4 14 0 21 -10 16 -21 27 -23 20 -3 -7 18 -65 46 -96 46 -13 0 -38 13 -54
29 -30 30 -94 56 -80 32 10 -15 -5 -13 -28 4 -21 16 -32 55 -16 55 5 0 14 -8
19 -17 6 -10 11 -15 11 -11 0 10 91 -30 113 -49 11 -11 21 -13 27 -7 7 7 -13
35 -60 85 -39 41 -83 88 -98 104 -28 30 -69 67 -132 119 -64 52 -133 111 -152
129 -10 9 -20 17 -23 17 -16 1 -34 13 -30 20 5 8 -23 38 -60 64 -11 8 -17 17
-14 20 3 3 27 -10 55 -29 27 -19 85 -59 129 -88 87 -59 131 -96 203 -172 26
-27 99 -101 162 -162 93 -92 111 -113 92 -113 -13 0 -20 -4 -17 -10 8 -13 18
-13 40 4 18 13 18 14 -4 44 -12 17 -21 34 -20 39 3 20 -3 34 -26 59 -18 20
-25 23 -25 11 0 -9 5 -19 10 -22 6 -3 10 -10 10 -16 0 -15 -19 -10 -37 9 -10
10 -54 58 -98 106 -122 135 -323 308 -474 408 -74 50 -142 93 -151 96 -23 9
-84 52 -73 52 5 0 50 -18 99 -39z m1839 19 c-3 -6 0 -13 9 -16 8 -3 14 -14 13
-25 -1 -22 -27 -35 -27 -14 0 10 -10 15 -32 15 -31 -1 -32 -1 -14 -15 16 -12
18 -20 10 -43 -9 -24 -17 -28 -53 -23 -5 0 -11 8 -15 16 -3 8 -2 14 2 14 22
-4 29 3 25 25 -3 14 -13 27 -22 29 -10 3 -8 5 7 6 13 0 20 6 17 11 -3 6 5 10
19 10 14 0 28 5 31 10 3 6 13 10 21 10 8 0 12 -5 9 -10z m-1853 -112 c66 -34
116 -64 110 -66 -8 -2 -236 109 -250 123 -19 19 36 -4 140 -57z m-2502 37 c-7
-9 -15 -13 -17 -11 -7 7 7 26 19 26 6 0 6 -6 -2 -15z m3137 -233 c84 -84 141
-147 122 -136 -34 19 -178 157 -182 175 -3 11 -4 19 -2 19 2 0 29 -26 62 -58z
m-604 -44 c20 -18 64 -44 97 -57 34 -13 82 -41 108 -62 76 -64 105 -87 141
-114 19 -14 30 -25 23 -25 -21 0 -13 -28 16 -49 36 -27 9 -27 -35 0 -18 12
-41 18 -49 15 -10 -4 -26 4 -43 20 -26 27 -94 63 -121 64 -24 2 -102 63 -120
95 -17 31 -31 41 -72 50 -16 3 -28 12 -28 20 0 19 -15 19 -34 -1 -15 -14 -16
-14 -16 5 0 13 7 21 18 21 9 0 27 3 40 6 16 5 22 2 22 -10 0 -9 5 -16 11 -16
7 0 8 7 4 18 -26 61 -15 67 38 20z m-96 8 c0 -11 -5 -13 -19 -5 -10 5 -18 12
-18 14 0 3 8 5 18 5 10 0 19 -7 19 -14z m-65 -23 c21 -19 23 -33 5 -33 -18 0
-49 34 -40 43 9 10 14 9 35 -10z m1098 -30 c0 -22 -18 -14 -41 19 l-23 31 32
-18 c18 -11 32 -25 32 -32z m-1264 -26 c15 -9 19 -27 5 -27 -4 0 -21 10 -36
22 -26 21 -27 22 -9 35 17 12 19 12 23 -4 2 -10 9 -22 17 -26z m39 -5 c-3 -3
-16 5 -28 17 l-22 23 28 -17 c15 -10 25 -20 22 -23z m77 -63 c-28 -5 -46 0
-25 8 7 2 9 12 6 20 -5 14 -2 13 19 -3 l26 -19 -26 -6z m988 1 c0 -5 -2 -10
-4 -10 -3 0 -8 5 -11 10 -3 6 -1 10 4 10 6 0 11 -4 11 -10z m-990 -40 c0 -5 6
-10 13 -10 22 0 94 -55 89 -68 -2 -9 3 -12 14 -10 11 2 18 -2 17 -9 -2 -7 3
-13 10 -13 11 0 107 -85 107 -95 0 -2 19 -22 43 -44 23 -22 36 -41 29 -41 -7
0 -44 32 -83 70 -38 39 -77 70 -86 70 -13 0 -14 -2 -2 -17 13 -15 11 -16 -16
-9 -38 10 -40 12 -27 29 9 11 2 21 -34 46 -28 21 -43 39 -40 47 3 9 -2 14 -14
14 -11 0 -24 9 -30 19 -13 25 -13 31 0 31 6 0 10 -4 10 -10z m1048 -8 c6 -18
-15 -14 -22 4 -4 10 -1 14 6 12 6 -2 14 -10 16 -16z m67 -92 c3 -5 2 -10 -4
-10 -5 0 -13 5 -16 10 -3 6 -2 10 4 10 5 0 13 -4 16 -10z m51 -72 l16 -33 -21
22 c-11 12 -21 27 -21 33 0 18 9 11 26 -22z m-486 12 c0 -5 -7 -10 -16 -10 -8
0 -12 5 -9 10 3 6 10 10 16 10 5 0 9 -4 9 -10z m-180 -25 c7 -8 18 -15 26 -15
16 0 79 -89 69 -98 -4 -4 -13 2 -21 13 -8 11 -21 27 -28 37 -8 9 -12 18 -10
21 3 3 -11 15 -30 27 -20 12 -36 24 -36 26 0 10 18 3 30 -11z m196 -60 c18
-14 36 -34 39 -45 4 -11 20 -35 36 -52 29 -33 36 -48 21 -48 -11 0 -62 65 -81
103 -8 15 -23 27 -33 27 -10 0 -18 6 -18 14 0 8 -6 17 -12 19 -10 4 -9 6 1 6
8 1 29 -10 47 -24z m532 -5 c7 -11 11 -20 9 -20 -2 0 -12 9 -22 20 -10 11 -14
20 -9 20 5 0 15 -9 22 -20z m-603 -70 c3 -5 1 -10 -4 -10 -6 0 -11 5 -11 10 0
6 2 10 4 10 3 0 8 -4 11 -10z m-239 -32 l29 -33 -32 29 c-18 17 -33 31 -33 33
0 8 8 1 36 -29z m-616 -18 c0 -5 -2 -10 -4 -10 -3 0 -8 5 -11 10 -3 6 -1 10 4
10 6 0 11 -4 11 -10z m58 -65 c36 -40 65 -85 59 -91 -10 -11 -37 16 -59 60
-11 22 -27 46 -34 54 -8 7 -14 19 -14 25 0 7 7 3 15 -8 8 -11 23 -29 33 -40z
m862 13 c15 -21 17 -28 6 -19 -16 13 -41 51 -33 51 2 0 14 -15 27 -32z m-719
-40 c22 -28 25 -45 3 -28 -17 15 -38 50 -28 50 3 0 14 -10 25 -22z m890 -23
c7 -13 3 -12 -10 5 -11 14 -21 30 -21 35 0 11 14 -7 31 -40z m-131 15 c0 -5
-2 -10 -4 -10 -3 0 -8 5 -11 10 -3 6 -1 10 4 10 6 0 11 -4 11 -10z m-610 -37
c0 -20 -16 -8 -23 17 -4 17 -3 19 9 9 8 -6 14 -18 14 -26z m358 17 c7 -12 21
-24 30 -28 14 -5 17 -13 12 -32 l-7 -25 -11 27 c-6 14 -16 29 -21 33 -15 9
-34 45 -24 45 5 0 14 -9 21 -20z m-784 -85 c19 -28 20 -35 6 -35 -5 0 -10 6
-10 14 0 8 -13 23 -30 33 -16 9 -30 23 -30 30 0 18 43 -10 64 -42z m1226 14
c0 -6 -4 -7 -10 -4 -5 3 -10 11 -10 16 0 6 5 7 10 4 6 -3 10 -11 10 -16z
m-990 -19 c0 -5 -2 -10 -4 -10 -3 0 -8 5 -11 10 -3 6 -1 10 4 10 6 0 11 -4 11
-10z m900 6 c0 -3 -4 -8 -10 -11 -5 -3 -10 -1 -10 4 0 6 5 11 10 11 6 0 10 -2
10 -4z m141 -43 c13 -16 12 -17 -3 -4 -10 7 -18 15 -18 17 0 8 8 3 21 -13z
m279 -90 c0 -12 6 -23 13 -23 13 -1 53 -78 44 -86 -10 -10 -97 132 -97 158 0
6 9 3 20 -7 11 -10 20 -29 20 -42z m-656 26 c-3 -5 -10 -7 -15 -3 -5 3 -7 10
-3 15 3 5 10 7 15 3 5 -3 7 -10 3 -15z m45 -31 c12 -24 39 -68 61 -98 22 -30
40 -65 40 -77 0 -13 4 -23 9 -23 9 0 121 -220 121 -239 0 -6 -9 -2 -20 9 -11
11 -20 28 -20 39 0 10 -9 30 -21 45 -11 14 -18 26 -14 26 3 0 -4 10 -15 23
-28 29 -98 147 -131 220 -14 32 -31 63 -36 68 -9 9 -7 49 2 49 2 0 12 -19 24
-42z m311 -37 c1 -3 10 -17 20 -30 16 -18 23 -21 34 -12 9 8 16 8 20 2 4 -5 2
-12 -4 -16 -14 -8 -13 -26 1 -22 7 1 33 -38 59 -88 26 -49 59 -112 74 -139 14
-27 26 -55 26 -62 0 -7 14 -37 31 -66 17 -29 32 -60 34 -70 2 -9 15 -34 29
-55 28 -40 36 -72 10 -38 -8 11 -19 20 -24 20 -9 0 -80 86 -80 97 0 4 -17 36
-39 71 -21 35 -42 73 -46 86 -14 46 -95 199 -154 290 -61 96 -73 142 -20 75
16 -20 29 -40 29 -43z m403 -8 c26 -67 2 -59 -32 10 -17 34 -31 66 -31 71 0
19 48 -42 63 -81z m1520 55 c22 -11 17 -49 -12 -88 -16 -21 -26 -25 -60 -22
-50 3 -79 26 -87 69 -10 53 7 65 80 57 34 -4 69 -11 79 -16z m-3003 -47 c0
-11 -5 -10 -20 4 -11 10 -20 22 -20 27 0 4 9 3 20 -4 11 -7 20 -19 20 -27z
m30 -26 c11 -13 10 -14 -4 -9 -9 3 -16 10 -16 15 0 13 6 11 20 -6z m385 -53
c-8 -8 -25 10 -25 26 0 13 2 13 14 -4 8 -10 13 -21 11 -22z m-285 13 c10 -12
10 -15 -4 -15 -9 0 -16 7 -16 15 0 8 2 15 4 15 2 0 9 -7 16 -15z m326 -80 c15
-29 16 -37 5 -47 -11 -11 -12 -9 -6 11 6 18 4 23 -7 19 -14 -6 -41 36 -30 47
11 11 19 4 38 -30z m1084 9 c0 -8 -4 -12 -10 -9 -5 3 -10 13 -10 21 0 8 5 12
10 9 6 -3 10 -13 10 -21z m-1019 -126 c7 -18 16 -35 19 -38 13 -10 41 -81 37
-93 -5 -16 -67 71 -67 95 0 10 -9 28 -20 40 -11 12 -20 28 -20 35 0 24 36 -4
51 -39z m37 17 c-3 -3 -9 2 -12 12 -6 14 -5 15 5 6 7 -7 10 -15 7 -18z m42
-77 c0 -25 -17 -23 -25 5 -19 65 -19 64 4 38 11 -13 21 -32 21 -43z m1600 -9
c0 -6 -4 -7 -10 -4 -5 3 -10 11 -10 16 0 6 5 7 10 4 6 -3 10 -11 10 -16z m229
-11 c40 -23 77 -63 83 -89 2 -7 18 -30 37 -51 19 -21 40 -47 48 -58 19 -27 82
-53 114 -46 15 3 30 2 33 -2 4 -3 45 -7 92 -8 47 -1 87 -4 89 -6 8 -7 -35 -83
-45 -80 -6 1 -10 -6 -10 -16 0 -29 30 -82 46 -82 18 0 48 -66 37 -83 -4 -7 -8
-14 -9 -17 -4 -19 -17 -39 -24 -35 -9 5 -40 -23 -75 -70 -29 -37 -46 -44 -180
-70 -165 -33 -178 -30 -218 37 -24 41 -34 72 -92 258 -14 47 -49 148 -76 224
-39 109 -47 141 -37 147 7 5 9 9 4 9 -5 0 1 9 14 20 13 11 18 20 12 20 -7 0
-12 5 -12 10 0 6 28 10 65 10 48 0 74 -6 104 -22z m-202 -18 c-1 -22 -17 -28
-17 -7 0 12 9 27 16 27 2 0 2 -9 1 -20z m-1737 -54 c0 -5 -7 -1 -15 10 -8 10
-14 24 -14 29 0 6 6 1 14 -9 8 -11 15 -24 15 -30z m1682 -66 c7 -22 16 -40 20
-40 5 0 8 -5 8 -12 0 -6 19 -57 41 -112 53 -128 60 -157 43 -181 -13 -17 -14
-16 -16 16 0 19 -1 40 -1 47 1 6 -5 12 -11 12 -16 0 -38 63 -30 84 4 11 1 16
-10 16 -9 0 -16 4 -16 9 0 5 -3 17 -7 27 -4 11 -3 15 4 11 7 -5 9 0 6 13 -3
11 -9 20 -14 20 -5 0 -9 4 -9 9 0 5 -5 22 -12 38 -6 15 -10 34 -9 41 1 6 -2
12 -7 12 -5 0 -12 12 -15 28 -3 15 -9 36 -12 47 -4 11 2 5 14 -13 12 -18 27
-51 33 -72z m-3582 76 c0 -3 -4 -8 -10 -11 -5 -3 -10 -1 -10 4 0 6 5 11 10 11
6 0 10 -2 10 -4z m42 -2 c8 -7 -2 -44 -12 -44 -4 0 -10 11 -12 25 -5 23 9 34
24 19z m-85 -27 c-1 -7 8 -11 21 -10 12 2 22 -2 22 -7 0 -6 6 -10 13 -10 7 0
18 -9 25 -20 7 -12 18 -17 29 -13 12 5 15 2 10 -10 -3 -8 -9 -33 -12 -54 -3
-21 -19 -87 -35 -148 -15 -60 -30 -148 -33 -195 -5 -81 -4 -83 8 -40 6 25 18
74 24 110 7 36 24 88 37 116 13 28 24 59 24 70 0 10 5 26 10 34 7 11 10 2 10
-32 0 -27 -4 -48 -9 -48 -5 0 -11 -30 -15 -67 -11 -128 -33 -298 -35 -269 -2
41 -7 30 -15 -29 -5 -38 -4 -46 4 -35 9 11 10 4 5 -30 -3 -25 -10 -74 -15
-110 -25 -197 -43 -284 -35 -170 4 51 3 60 -5 40 -6 -13 -12 -56 -14 -95 -2
-49 -9 -83 -25 -113 -22 -43 -23 -44 -43 -25 -15 13 -36 18 -84 18 -35 0 -56
3 -46 7 14 5 13 7 -5 7 -29 1 -31 31 -3 49 11 7 20 19 20 27 0 23 -28 18 -46
-9 -9 -15 -21 -23 -30 -19 -8 3 -20 -2 -27 -10 -13 -17 -47 -19 -256 -14 -76
1 -105 -1 -109 -11 -2 -6 -18 -12 -35 -12 -17 0 -38 -6 -46 -14 -20 -17 -110
-43 -134 -38 -19 4 -19 -9 -1 187 4 39 11 76 17 83 5 6 6 12 3 12 -4 0 0 7 8
16 9 8 16 26 16 39 0 35 42 116 56 111 8 -3 17 13 25 44 7 27 16 47 20 44 4
-2 11 2 16 9 4 7 16 16 25 20 15 5 16 10 6 32 -11 24 -9 29 25 61 20 20 37 40
37 45 0 5 15 25 33 43 18 18 31 38 30 43 -2 6 1 14 6 18 6 3 11 15 11 26 0 10
7 19 15 19 8 0 17 11 21 25 3 14 10 25 15 25 5 0 9 7 9 15 0 9 11 21 25 27 14
6 25 20 25 31 0 13 5 17 15 14 12 -5 12 -1 4 21 -8 21 -7 29 7 39 10 7 26 13
36 13 10 0 18 5 18 10 0 6 16 10 36 10 27 0 35 4 31 14 -3 8 6 19 21 27 15 8
32 20 38 28 17 22 74 38 141 39 43 0 62 -3 60 -11z m2093 -60 c0 -28 -14 -11
-28 33 l-12 35 20 -24 c11 -13 20 -33 20 -44z m-2360 13 c0 -13 -28 -25 -38
-16 -3 4 0 11 8 16 20 13 30 12 30 0z m2420 -29 c0 -10 -8 -26 -19 -35 -17
-15 -19 -15 -25 -1 -9 24 -7 32 4 15 7 -12 11 -8 16 17 7 33 24 36 24 4z m340
13 c0 -8 -4 -12 -10 -9 -5 3 -10 10 -10 16 0 5 5 9 10 9 6 0 10 -7 10 -16z
m27 -56 c-3 -8 -6 -5 -6 6 -1 11 2 17 5 13 3 -3 4 -12 1 -19z m-2039 -53 c1
-1 0 -10 -4 -19 -8 -22 -24 -20 -24 3 0 11 -6 22 -12 25 -7 3 -2 3 12 0 14 -4
26 -8 28 -9z m1466 -54 c-6 -6 -24 19 -24 34 1 6 7 1 15 -9 8 -11 12 -22 9
-25z m-1591 -12 c-1 -13 -4 -49 -6 -80 -3 -31 -10 -66 -16 -77 -6 -11 -11 -45
-10 -74 l0 -53 13 35 c7 19 19 64 26 99 6 36 18 74 26 85 8 11 14 33 14 48 0
17 5 28 14 28 8 0 13 -8 12 -17 -1 -13 5 -17 19 -15 11 2 22 8 23 13 16 42 95
54 127 19 10 -11 28 -20 41 -20 16 0 24 -7 26 -22 2 -14 12 -24 27 -28 21 -5
69 -74 101 -148 5 -13 14 -20 20 -17 9 6 14 -12 11 -45 -1 -8 12 -24 28 -35
16 -10 28 -22 25 -26 -2 -3 18 -15 43 -24 26 -10 56 -27 67 -37 11 -10 25 -18
32 -18 6 0 15 -10 19 -22 l7 -23 7 25 7 25 7 -27 c4 -14 23 -43 42 -63 42 -43
80 -124 94 -202 6 -30 15 -61 20 -67 12 -14 10 -56 -1 -56 -4 0 -8 -7 -8 -15
0 -8 -6 -24 -12 -35 -10 -16 -10 -24 0 -40 16 -27 9 -38 -31 -45 -27 -5 -37
-15 -55 -55 -21 -45 -31 -127 -14 -116 4 2 6 -14 5 -36 -4 -68 22 -93 106
-104 19 -2 40 -9 48 -15 7 -6 19 -9 27 -6 12 5 13 -1 9 -29 -5 -30 -3 -34 15
-34 11 0 24 -4 27 -10 3 -5 2 -10 -4 -10 -6 0 -7 -7 -4 -17 4 -11 3 -14 -5 -9
-7 4 -15 1 -18 -8 -3 -9 -10 -13 -15 -10 -5 3 -9 -4 -9 -15 0 -12 6 -21 13
-22 6 0 1 -5 -13 -10 -19 -7 -29 -22 -39 -54 -15 -50 -24 -60 -64 -70 -33 -9
-33 -15 -2 -82 23 -47 45 -69 45 -44 0 15 45 61 59 61 9 0 10 -13 5 -45 -9
-63 2 -112 26 -118 11 -3 20 -11 20 -19 1 -24 113 -88 176 -99 32 -6 73 -15
90 -20 54 -16 74 -12 74 15 0 16 -7 27 -21 31 -21 7 -21 32 0 27 6 -1 14 5 17
13 4 8 17 15 29 15 13 0 27 5 30 10 3 6 14 10 24 10 10 0 24 7 31 15 7 9 21
13 31 10 9 -3 20 -1 24 5 3 5 22 10 41 10 24 0 33 4 28 11 -5 8 3 10 27 5 19
-4 58 -8 87 -11 30 -2 72 -11 95 -18 23 -8 61 -21 85 -28 23 -7 42 -15 42 -19
0 -4 11 -19 25 -34 14 -15 25 -33 25 -41 0 -8 12 -21 28 -29 15 -8 38 -26 51
-40 14 -14 30 -26 37 -26 7 0 17 -6 21 -12 21 -33 138 -129 197 -162 35 -20
74 -50 86 -66 58 -81 62 -306 9 -517 -17 -70 -35 -132 -40 -137 -5 -6 -9 -16
-9 -22 0 -26 -151 -366 -235 -529 -47 -93 -90 -177 -94 -185 -45 -90 -71 -135
-110 -190 -24 -36 -58 -84 -74 -107 -15 -24 -34 -43 -40 -43 -12 0 -31 -34
-116 -209 -23 -46 -54 -95 -70 -110 -15 -14 -42 -53 -58 -86 -17 -33 -39 -76
-51 -95 -11 -19 -30 -53 -42 -74 -55 -102 -215 -281 -297 -333 -15 -9 -30 -20
-33 -24 -11 -13 -161 -78 -245 -107 -126 -42 -242 -56 -406 -49 -129 6 -229
23 -229 38 0 4 -17 10 -37 14 -20 4 -50 18 -66 31 -16 13 -36 24 -46 24 -10 0
-34 16 -54 35 -23 22 -37 30 -40 22 -4 -8 -6 -6 -6 3 -1 9 4 21 9 26 7 7 -3
18 -30 33 -22 12 -40 27 -40 33 0 6 -3 8 -7 5 -11 -12 -33 14 -33 39 0 13 -4
24 -8 24 -15 0 -90 81 -102 110 -6 15 -27 34 -46 44 -19 9 -33 20 -30 25 3 5
-1 14 -9 21 -8 7 -15 18 -15 26 0 7 -9 16 -20 19 -11 4 -18 10 -15 15 3 5 -3
24 -13 42 -15 25 -25 32 -43 30 -17 -2 -20 0 -10 6 11 8 11 14 1 33 -20 37
-83 98 -94 92 -6 -4 -8 -3 -4 2 13 14 -12 45 -49 63 -20 9 -37 24 -39 33 -3
23 -62 81 -75 73 -7 -4 -2 -15 12 -30 19 -20 20 -24 6 -30 -9 -3 -24 3 -36 15
-12 12 -26 21 -33 21 -6 0 -8 3 -5 7 12 12 -46 63 -71 63 -14 0 -36 13 -52 30
-15 17 -26 30 -23 30 2 0 -9 11 -25 25 -17 14 -40 46 -52 70 -12 25 -26 45
-32 45 -6 0 -8 6 -5 13 6 17 -39 62 -48 47 -10 -16 -25 -2 -25 23 0 18 -2 19
-10 7 -8 -13 -10 -12 -10 4 0 32 -34 96 -48 91 -7 -3 -11 -1 -8 3 3 5 -4 22
-14 40 -10 17 -15 32 -10 34 10 3 3 39 -22 122 -8 25 -14 33 -17 23 -4 -9 -6
35 -6 97 0 94 -3 115 -17 130 -11 11 -18 33 -18 57 0 22 -4 47 -9 57 -4 9 -16
32 -26 50 -9 19 -17 49 -17 68 0 21 -5 34 -13 34 -7 0 -16 14 -20 31 -4 17
-13 42 -21 57 -7 15 -16 53 -20 84 -4 32 -11 58 -15 58 -5 0 -9 18 -9 39 0 22
-4 43 -10 46 -5 3 -10 26 -10 50 0 24 -7 78 -15 121 -8 43 -12 95 -9 116 5 26
3 38 -5 38 -7 0 -9 5 -6 10 3 6 2 10 -3 10 -15 0 -31 108 -25 168 3 28 1 52
-4 52 -5 0 -9 10 -10 23 -2 33 20 211 26 217 3 3 6 14 6 25 0 26 48 44 75 27
11 -6 26 -9 33 -6 8 3 17 -2 20 -10 4 -9 18 -16 31 -16 14 0 29 -8 35 -17 8
-14 23 -18 77 -18 45 0 69 -4 72 -13 2 -6 13 -12 25 -12 21 -1 71 -30 51 -30
-5 0 -2 -5 6 -10 20 -13 77 -13 85 0 3 6 52 10 111 10 63 0 104 4 104 10 0 6
9 10 20 10 27 0 25 -18 -2 -30 -17 -7 -11 -8 24 -4 35 5 51 2 63 -9 26 -27 17
-34 -45 -34 -64 0 -81 -6 -62 -25 9 -9 15 -9 24 0 17 17 42 15 62 -7 16 -17
16 -19 -6 -25 -38 -10 -178 -7 -199 4 -13 7 -19 7 -19 0 0 -5 5 -10 11 -10 5
0 7 -4 4 -10 -3 -5 -20 -10 -36 -10 -20 0 -29 -4 -27 -12 7 -21 56 -40 127
-48 86 -11 276 -14 291 -5 6 4 21 9 33 11 90 15 160 35 207 58 66 31 78 41
109 85 17 25 20 35 11 41 -9 6 -6 10 9 15 11 3 25 14 29 23 8 15 8 93 1 142
-7 52 16 65 60 31 19 -14 24 -29 26 -70 3 -43 8 -56 27 -68 12 -9 28 -22 34
-30 18 -21 53 -24 88 -6 34 17 47 33 40 45 -3 4 -1 8 5 8 5 0 13 10 17 23 4
12 12 25 18 29 17 11 11 210 -8 261 -9 23 -18 62 -20 87 -3 25 -9 44 -15 43
-6 -2 -20 16 -32 40 -12 23 -33 57 -47 75 -13 17 -22 32 -19 32 3 0 -1 16 -9
35 -7 19 -14 45 -14 59 0 13 -9 34 -20 47 -17 21 -19 22 -20 5 0 -15 -3 -16
-15 -6 -19 15 -20 40 -2 40 8 0 14 7 14 14 0 11 -5 12 -18 5 -24 -12 -29 -11
-29 6 0 8 -17 22 -37 31 -21 10 -46 24 -56 33 -16 13 -19 13 -27 1 -8 -13 -12
-12 -24 5 -9 11 -18 35 -22 54 -12 58 3 380 20 444 9 32 16 71 16 87 0 17 5
30 11 30 5 0 15 13 20 30 14 38 29 29 29 -17 0 -22 7 -41 18 -49 11 -9 13 -13
4 -14 -8 0 -10 -5 -5 -12 4 -7 11 -38 14 -68 13 -98 21 -140 29 -135 9 6 4 75
-13 175 -18 113 -12 267 15 356 15 50 27 74 37 75 10 0 11 2 4 5 -7 3 -9 12
-6 20 3 7 9 11 14 8 5 -3 9 0 9 6 0 7 6 10 13 7 6 -2 11 -15 10 -28z m1677
-114 c7 -9 8 -15 2 -15 -5 0 -12 7 -16 15 -3 8 -4 15 -2 15 2 0 9 -7 16 -15z
m4280 -1063 c43 -40 50 -131 10 -152 -10 -5 -28 -29 -40 -52 -21 -43 -56 -68
-95 -68 -25 0 -49 50 -42 88 3 15 1 35 -4 44 -13 24 8 107 34 136 26 28 108
31 137 4z m-6528 -75 c18 -9 49 -18 68 -22 62 -11 130 -39 130 -52 0 -7 7 -13
15 -13 8 0 15 -7 15 -15 0 -20 10 -19 25 2 11 15 13 14 19 -14 4 -17 17 -36
31 -43 14 -7 25 -17 25 -22 0 -4 10 -8 23 -9 l22 0 -22 -9 c-17 -7 -23 -18
-23 -38 0 -16 -8 -36 -17 -43 -15 -12 -16 -12 -10 4 4 11 2 17 -7 17 -7 0 -24
9 -37 20 -13 11 -28 23 -34 28 -5 4 -14 9 -18 9 -4 1 -20 5 -35 10 -15 6 -49
18 -77 28 -29 10 -93 19 -152 22 -57 3 -103 10 -103 14 0 14 -28 11 -33 -3 -4
-10 -7 -10 -14 -1 -7 9 -24 8 -77 -4 -52 -12 -70 -12 -76 -3 -4 6 -20 11 -36
9 -43 -3 -101 2 -86 8 6 2 12 11 12 19 0 16 16 19 25 4 9 -15 25 -2 25 19 0
10 7 24 15 31 8 7 12 16 9 21 -2 5 8 11 23 15 15 3 46 12 68 19 54 18 261 12
307 -8z m-4537 -52 c22 -13 36 -25 30 -25 -5 0 2 -10 16 -23 38 -33 57 -67 64
-117 8 -57 -5 -71 -98 -95 -83 -22 -133 -12 -160 34 -24 42 -24 182 1 202 21
18 78 45 102 48 3 1 23 -10 45 -24z m6374 -274 c7 -14 21 -45 32 -69 l18 -42
-32 5 c-92 15 -98 18 -108 43 -10 26 -3 79 13 98 14 18 61 -4 77 -35z m-2023
-65 c8 -8 14 -20 14 -26 0 -6 9 -30 20 -52 11 -23 20 -43 20 -45 0 -2 -16 -3
-35 -3 -19 0 -35 4 -35 9 0 5 -8 12 -17 15 -13 4 -19 18 -21 47 -4 59 22 86
54 55z m4589 -171 c9 -40 -3 -27 -15 15 -5 19 -6 29 -1 24 5 -5 12 -22 16 -39z
m-4005 -5 c12 -7 13 -13 3 -27 -6 -10 -17 -16 -25 -14 -7 2 -30 6 -50 9 -21 2
-38 8 -38 14 0 5 -15 9 -32 8 -48 -3 -55 -1 -38 10 19 13 160 13 180 0z m4053
-185 c4 -8 2 -17 -3 -20 -6 -4 -10 3 -10 14 0 25 6 27 13 6z m-6499 -228 c-3
-9 -10 -17 -15 -17 -11 0 -12 34 -2 43 11 12 24 -8 17 -26z m6655 -364 c0 -25
-1 -26 -9 -8 -12 27 -12 35 0 35 6 0 10 -12 9 -27z m34 -113 c6 -24 13 -46 82
-260 19 -58 55 -188 80 -290 25 -102 57 -225 70 -275 14 -49 32 -119 40 -155
8 -36 23 -80 32 -98 13 -25 14 -35 5 -44 -9 -9 -12 -7 -12 8 0 11 -7 29 -15
41 -8 12 -22 50 -31 85 -8 35 -26 99 -39 143 -14 44 -47 170 -76 280 -28 110
-64 243 -79 295 -16 52 -34 117 -40 144 -6 27 -20 75 -30 107 -11 32 -20 64
-20 71 0 18 26 -23 33 -52z m117 -130 c0 -13 -1 -13 -10 0 -5 8 -10 22 -10 30
0 13 1 13 10 0 5 -8 10 -22 10 -30z m43 -110 c4 -17 3 -19 -9 -9 -8 6 -14 18
-14 26 0 20 16 8 23 -17z m26 -120 c-5 -9 -8 8 -7 45 l1 60 7 -45 c4 -25 4
-52 -1 -60z m38 -52 c-3 -8 -6 -5 -6 6 -1 11 2 17 5 13 3 -3 4 -12 1 -19z
m111 -314 c39 -114 111 -296 123 -308 5 -6 8 -26 8 -45 l-1 -36 -8 30 c-4 17
-8 26 -9 21 -2 -17 -48 79 -78 164 -17 47 -49 137 -71 200 -27 76 -39 124 -35
140 6 21 8 18 23 -26 9 -27 31 -90 48 -140z m-5661 44 c-3 -8 -6 -5 -6 6 -1
11 2 17 5 13 3 -3 4 -12 1 -19z m-1430 -130 c-3 -8 -6 -5 -6 6 -1 11 2 17 5
13 3 -3 4 -12 1 -19z m-7 -93 c0 -19 -4 -37 -10 -40 -6 -4 -10 12 -10 40 0 28
4 44 10 40 6 -3 10 -21 10 -40z m-35 -97 c-8 -58 -15 -61 -15 -5 0 26 4 47 10
47 6 0 8 -17 5 -42z m-25 -38 c0 -5 -4 -10 -10 -10 -5 0 -10 5 -10 10 0 6 5
10 10 10 6 0 10 -4 10 -10z m-20 -85 c0 -8 -7 -15 -15 -15 -16 0 -20 12 -8 23
11 12 23 8 23 -8z m7344 -91 c9 -23 7 -36 -3 -30 -12 8 -21 46 -11 46 4 0 11
-7 14 -16z m-157 -16 c-3 -8 -6 -5 -6 6 -1 11 2 17 5 13 3 -3 4 -12 1 -19z
m46 -78 c3 -11 1 -18 -4 -14 -5 3 -9 12 -9 20 0 20 7 17 13 -6z m-5276 -66
c-3 -3 -12 -4 -19 -1 -8 3 -5 6 6 6 11 1 17 -2 13 -5z m19 -13 c-4 -5 -3 -11
1 -13 5 -1 19 -18 32 -37 25 -36 14 -33 -31 8 -22 19 -25 27 -17 38 13 15 23
18 15 4z m-2106 -131 c0 -5 -4 -10 -10 -10 -5 0 -10 5 -10 10 0 6 5 10 10 10
6 0 10 -4 10 -10z m150 -88 c0 -5 -7 -17 -15 -28 -14 -19 -14 -19 -15 2 0 11
3 24 7 27 9 10 23 9 23 -1z m7173 -244 c10 -10 14 -18 10 -18 -11 0 -73 57
-73 66 0 7 29 -15 63 -48z m327 -109 c11 -21 16 -39 10 -39 -5 0 -10 6 -10 14
0 7 -6 19 -14 25 -16 13 -29 54 -15 45 5 -3 18 -23 29 -45z m164 -35 c5 -14 4
-15 -9 -4 -17 14 -19 20 -6 20 5 0 12 -7 15 -16z m-104 -79 c0 -15 -18 -1 -28
20 -19 42 -14 53 8 17 11 -18 20 -35 20 -37z m140 20 c0 -5 -5 -3 -10 5 -5 8
-10 20 -10 25 0 6 5 3 10 -5 5 -8 10 -19 10 -25z m13 -32 c-3 -10 -3 -15 2
-11 8 8 33 -21 53 -62 7 -14 23 -43 37 -65 13 -22 24 -49 24 -60 0 -16 -2 -15
-12 6 -7 15 -27 46 -45 70 -56 74 -83 120 -77 130 11 16 25 10 18 -8z m-137
-20 c-10 -10 -19 5 -10 18 6 11 8 11 12 0 2 -7 1 -15 -2 -18z m-6874 -127 c11
-21 22 -58 23 -83 3 -39 0 -45 -21 -55 -35 -16 -40 -5 -47 104 -6 99 0 139 16
97 5 -13 18 -41 29 -63z m7218 -210 c0 -7 18 -32 41 -57 46 -51 99 -123 99
-137 0 -9 74 -110 108 -148 10 -11 27 -42 37 -70 31 -87 58 -144 68 -144 5 0
7 -6 4 -13 -5 -15 41 -84 166 -247 75 -99 90 -136 43 -105 -12 8 -26 12 -31 8
-4 -5 -5 -3 -1 4 3 6 1 15 -6 20 -12 7 -55 70 -114 163 -12 19 -50 94 -85 165
-62 127 -134 250 -170 290 -10 11 -33 45 -51 76 -18 31 -51 84 -74 116 -40 58
-74 120 -74 132 1 11 40 -41 40 -53z m-7178 -3 c14 -13 21 -14 27 -5 5 8 12 6
24 -8 19 -22 22 -34 7 -25 -5 3 -10 1 -10 -4 0 -6 4 -11 8 -11 5 0 14 -11 21
-23 10 -19 10 -32 0 -65 -7 -23 -16 -42 -20 -42 -4 0 -11 -15 -15 -32 -7 -34
-44 -123 -69 -168 -32 -57 -36 -36 -34 167 2 232 10 262 61 216z m7038 -148
c0 -5 -9 5 -20 23 -11 18 -20 38 -20 45 1 14 39 -52 40 -68z m-4027 58 c-13
-2 -33 -2 -45 0 -13 2 -3 4 22 4 25 0 35 -2 23 -4z m60 -20 c-24 -2 -62 -2
-85 0 -24 2 -5 4 42 4 47 0 66 -2 43 -4z m-75 -20 c-10 -2 -26 -2 -35 0 -10 3
-2 5 17 5 19 0 27 -2 18 -5z m-65 -30 c-13 -2 -33 -2 -45 0 -13 2 -3 4 22 4
25 0 35 -2 23 -4z m-23 -23 l-45 -7 43 -1 c23 -1 42 -6 42 -12 0 -6 33 -10 80
-10 52 0 80 4 80 11 0 8 6 7 16 -2 14 -12 15 -31 9 -159 -8 -160 -21 -292 -24
-227 -1 36 -2 37 -41 37 -38 0 -40 -2 -40 -30 0 -16 -4 -30 -10 -30 -5 0 -10
9 -10 20 0 13 -7 20 -20 20 -18 0 -20 -7 -20 -60 l0 -60 -90 0 -90 0 0 -80 0
-80 -80 0 -80 0 0 80 0 80 -60 0 -60 0 0 40 c0 22 -4 40 -10 40 -5 0 -10 9
-10 20 0 11 -4 20 -10 20 -5 0 -10 9 -10 20 0 17 -7 20 -40 20 l-40 0 0 70 0
70 40 0 c22 0 40 4 40 9 0 5 9 12 19 16 11 3 23 15 26 26 4 10 13 19 21 19 8
0 14 7 14 15 0 10 10 15 26 15 24 0 26 3 21 30 -8 36 -5 36 39 9 l33 -20 23
35 c16 25 32 36 58 40 19 4 55 10 80 15 25 5 63 8 85 8 l40 0 -45 -7z m-285
-40 c3 -5 1 -10 -4 -10 -6 0 -11 5 -11 10 0 6 2 10 4 10 3 0 8 -4 11 -10z
m4169 -6 c3 -8 2 -12 -4 -9 -6 3 -10 10 -10 16 0 14 7 11 14 -7z m66 -104 c6
-11 8 -20 6 -20 -3 0 -10 9 -16 20 -6 11 -8 20 -6 20 3 0 10 -9 16 -20z m46
-73 c14 -30 14 -31 -1 -12 -25 30 -39 59 -26 51 6 -4 18 -22 27 -39z m208
-123 c3 -8 2 -12 -4 -9 -6 3 -10 10 -10 16 0 14 7 11 14 -7z m254 -99 c-3 -3
-9 2 -12 12 -6 14 -5 15 5 6 7 -7 10 -15 7 -18z m28 -47 c14 -28 15 -31 2 -20
-14 11 -31 52 -22 52 2 0 11 -15 20 -32z m358 -263 c10 -8 27 -33 37 -56 10
-22 63 -109 118 -192 54 -84 108 -170 120 -192 22 -41 67 -105 79 -115 9 -6
29 -39 41 -65 5 -11 23 -38 40 -59 17 -22 29 -42 26 -44 -8 -8 -65 57 -65 73
0 8 -4 16 -9 20 -6 3 -7 -9 -4 -30 7 -46 0 -44 -27 8 -86 165 -126 237 -175
312 -148 227 -215 335 -215 348 0 11 13 8 34 -8z m-5144 -85 c0 -5 -13 -10
-30 -10 -16 0 -30 5 -30 10 0 6 14 10 30 10 17 0 30 -4 30 -10z m1788 -280 c2
-26 0 -31 -8 -20 -6 10 -10 11 -10 3 0 -7 -7 -10 -17 -6 -11 4 -14 3 -9 -5 9
-15 1 -15 -25 -2 -27 15 -24 37 9 54 40 23 57 16 60 -24z m-2605 23 c-24 -2
-62 -2 -85 0 -24 2 -5 4 42 4 47 0 66 -2 43 -4z m0 -20 c-24 -2 -62 -2 -85 0
-24 2 -5 4 42 4 47 0 66 -2 43 -4z m2884 -23 c-3 -11 0 -20 6 -20 6 0 8 -3 4
-6 -11 -12 -25 6 -20 26 3 11 8 20 10 20 3 0 3 -9 0 -20z m-3067 0 c0 -5 -5
-10 -11 -10 -5 0 -7 5 -4 10 3 6 8 10 11 10 2 0 4 -4 4 -10z m2691 -41 c40
-28 41 -51 1 -30 -9 6 -29 12 -44 16 -15 3 -33 15 -39 27 -11 20 -10 21 21 15
17 -4 45 -16 61 -28z m-46 -43 l58 -23 4 -90 c3 -74 0 -97 -16 -134 -12 -24
-21 -38 -21 -31 0 15 -10 15 -30 2 -13 -9 -12 -13 8 -29 22 -19 31 -38 12 -26
-5 3 -7 0 -5 -7 3 -7 17 -18 31 -25 24 -11 26 -10 44 33 11 24 24 44 30 44 5
0 21 -18 34 -39 29 -46 44 -57 58 -43 6 6 4 26 -7 58 -18 53 -21 165 -5 192 8
15 9 14 10 -5 0 -12 4 -24 9 -27 5 -3 19 -39 31 -78 12 -40 28 -86 35 -103 21
-49 35 -119 25 -129 -5 -5 -24 0 -44 12 -26 16 -42 19 -59 13 -23 -9 -119 15
-125 31 -2 4 -16 8 -32 8 -15 0 -33 7 -40 15 -7 8 -19 15 -26 15 -29 0 -121
49 -151 81 -17 19 -55 57 -83 84 -72 71 -80 115 -19 115 20 0 49 14 86 43 102
78 103 78 188 43z m510 -135 c-3 -11 -1 -22 5 -26 5 -3 10 -1 10 6 0 7 8 2 19
-9 10 -12 21 -19 25 -15 7 7 79 33 82 30 5 -6 34 -163 34 -186 0 -33 -41 -51
-117 -51 l-51 0 -10 48 c-6 26 -16 73 -23 104 -9 44 -9 61 0 72 6 7 11 18 10
22 -3 16 1 24 12 24 6 0 8 -8 4 -19z m2475 -263 c0 -10 -12 -10 -35 -2 -23 9
-54 76 -61 131 l-6 48 51 -84 c28 -46 51 -88 51 -93z m950 78 c0 -6 -7 -2 -15
8 -8 11 -15 25 -15 30 0 6 7 2 15 -8 8 -11 15 -25 15 -30z m59 20 c8 -13 11
-30 8 -38 -4 -9 -6 -8 -6 3 -1 9 -8 19 -16 23 -16 6 -21 36 -7 36 5 0 14 -11
21 -24z m-3535 -60 c22 -65 17 -82 -7 -23 -16 37 -30 104 -21 94 4 -3 16 -35
28 -71z m3576 3 c0 -5 -4 -9 -10 -9 -5 0 -10 7 -10 16 0 8 5 12 10 9 6 -3 10
-10 10 -16z m-5103 5 c-3 -3 -12 -4 -19 -1 -8 3 -5 6 6 6 11 1 17 -2 13 -5z
m4437 -10 c4 -10 1 -14 -6 -12 -15 5 -23 28 -10 28 5 0 13 -7 16 -16z m586
-19 c0 -5 -5 -3 -10 5 -5 8 -10 20 -10 25 0 6 5 3 10 -5 5 -8 10 -19 10 -25z
m-420 -35 c12 -23 12 -24 -3 -11 -10 7 -17 20 -17 29 0 18 3 16 20 -18z
m-2820 -82 c14 -34 58 -216 65 -273 6 -51 47 -202 116 -425 21 -69 49 -169 63
-223 14 -53 41 -137 59 -185 19 -48 45 -121 57 -162 12 -41 29 -83 38 -92 10
-12 11 -18 3 -18 -6 0 -24 21 -39 47 -15 25 -37 55 -49 66 -23 21 -83 153 -83
182 0 23 -32 75 -45 75 -20 0 -45 25 -50 49 -2 14 -10 28 -17 32 -7 4 -13 23
-14 41 0 18 -24 83 -52 143 -59 130 -223 587 -236 660 -1 6 -6 17 -11 25 -5 8
6 4 24 -10 18 -14 44 -46 58 -70 14 -25 34 -57 44 -72 11 -14 19 -28 19 -31 0
-13 64 -107 73 -107 15 0 -2 71 -24 98 -10 14 -19 30 -19 37 0 7 -8 23 -18 36
-28 37 -49 102 -45 135 3 19 15 37 31 47 35 22 41 21 52 -5z m2013 -38 c7 -29
-8 -25 -21 5 -16 34 -15 40 2 26 8 -6 16 -21 19 -31z m-933 -130 c0 -5 -4 -10
-10 -10 -5 0 -10 5 -10 10 0 6 5 10 10 10 6 0 10 -4 10 -10z m261 -133 c-10
-9 -11 -8 -5 6 3 10 9 15 12 12 3 -3 0 -11 -7 -18z m1226 -84 c13 -28 30 -84
38 -125 8 -40 28 -113 45 -163 19 -57 38 -143 50 -235 11 -80 22 -163 26 -185
6 -35 5 -38 -8 -25 -8 8 -27 47 -43 85 -15 39 -50 122 -78 185 -76 176 -93
230 -117 368 -4 23 -3 42 2 42 4 0 8 14 8 31 0 20 4 28 11 23 9 -5 10 8 7 47
l-5 53 20 -24 c11 -14 31 -48 44 -77z m-868 -61 c24 -48 55 -109 68 -137 14
-27 34 -65 45 -82 11 -18 15 -33 10 -33 -18 0 -202 341 -202 375 1 19 35 -35
79 -123z m227 -403 c60 -106 134 -247 134 -256 -1 -14 -39 40 -62 87 -12 25
-30 54 -40 64 -10 11 -18 25 -18 31 0 7 -9 20 -20 30 -11 10 -17 21 -15 26 3
4 1 10 -4 13 -12 8 -71 122 -71 138 0 16 51 -54 96 -133z m452 -99 c11 -22 16
-40 12 -40 -7 0 -24 31 -34 63 -9 30 1 19 22 -23z m73 -148 c12 3 64 -81 56
-89 -10 -9 -157 152 -157 171 0 6 20 -11 45 -37 24 -26 50 -46 56 -45z m-181
-9 c12 -25 30 -82 40 -127 34 -153 52 -211 73 -233 11 -13 17 -23 12 -23 -16
0 -57 54 -81 109 -25 55 -75 229 -89 305 -6 35 -5 38 8 27 9 -6 25 -33 37 -58z
m726 -421 c19 -78 33 -150 30 -160 -3 -9 1 -39 9 -66 8 -27 15 -68 15 -90 0
-59 20 -197 33 -223 6 -13 7 -26 4 -29 -4 -4 -10 2 -14 12 -3 10 -15 30 -24
44 -28 39 -70 198 -75 280 -2 41 -12 107 -23 145 -19 69 -35 189 -45 335 l-5
75 30 -90 c16 -49 45 -154 65 -233z m-402 267 c26 -29 32 -46 11 -31 -22 16
-58 62 -48 62 5 0 22 -14 37 -31z m-450 -25 c3 -8 2 -12 -4 -9 -6 3 -10 10
-10 16 0 14 7 11 14 -7z m-1726 -139 c-3 -3 -9 2 -12 12 -6 14 -5 15 5 6 7 -7
10 -15 7 -18z m2015 -110 c58 -121 175 -461 163 -472 -7 -8 -32 54 -101 252
-34 99 -69 197 -79 218 -21 47 -5 49 17 2z"/>
<path d="M7556 10521 c-4 -7 -5 -15 -2 -18 9 -9 19 4 14 18 -4 11 -6 11 -12 0z"/>
<path d="M7700 10285 c0 -3 9 -15 20 -27 22 -24 27 -13 6 15 -13 16 -26 23
-26 12z"/>
<path d="M7765 10250 c-4 -6 -5 -10 -3 -11 25 -6 38 -6 38 1 0 12 -29 20 -35
10z"/>
<path d="M7775 10180 c-3 -5 -1 -10 4 -10 6 0 11 5 11 10 0 6 -2 10 -4 10 -3
0 -8 -4 -11 -10z"/>
<path d="M7956 9985 c-8 -22 3 -40 16 -27 7 7 7 16 1 27 -9 16 -10 16 -17 0z"/>
<path d="M6858 10753 c7 -3 16 -2 19 1 4 3 -2 6 -13 5 -11 0 -14 -3 -6 -6z"/>
<path d="M6925 10680 c-3 -5 1 -13 10 -16 22 -9 29 1 11 15 -10 8 -16 9 -21 1z"/>
<path d="M5056 9404 c-8 -22 -7 -34 3 -34 12 0 21 39 11 45 -4 3 -11 -2 -14
-11z"/>
<path d="M4997 8883 c-11 -10 -8 -43 3 -43 6 0 10 11 10 25 0 26 -2 29 -13 18z"/>
<path d="M4877 8653 c-4 -3 -7 -11 -7 -17 0 -6 5 -5 12 2 6 6 9 14 7 17 -3 3
-9 2 -12 -2z"/>
<path d="M4741 8471 c-20 -28 -27 -51 -16 -51 10 0 42 34 54 58 18 34 -13 29
-38 -7z"/>
<path d="M4178 8343 c7 -3 16 -2 19 1 4 3 -2 6 -13 5 -11 0 -14 -3 -6 -6z"/>
<path d="M5292 8915 c0 -16 2 -22 5 -12 2 9 2 23 0 30 -3 6 -5 -1 -5 -18z"/>
<path d="M5263 8410 c0 -30 2 -43 4 -27 2 15 2 39 0 55 -2 15 -4 2 -4 -28z"/>
<path d="M5270 8301 c0 -5 5 -13 10 -16 6 -3 10 -2 10 4 0 5 -4 13 -10 16 -5
3 -10 2 -10 -4z"/>
<path d="M4228 7323 c6 -2 18 -2 25 0 6 3 1 5 -13 5 -14 0 -19 -2 -12 -5z"/>
<path d="M4505 7270 c-8 -13 20 -24 42 -16 15 6 15 8 3 16 -20 13 -37 12 -45
0z"/>
<path d="M5303 6713 c-7 -2 -13 -11 -13 -19 0 -8 -4 -14 -10 -14 -5 0 -10 -6
-10 -13 0 -7 -11 -23 -24 -35 -17 -14 -27 -36 -31 -69 -4 -26 -14 -68 -22 -93
-10 -31 -12 -62 -7 -105 4 -33 8 -70 9 -83 1 -12 11 -33 23 -47 12 -14 22 -27
22 -30 0 -3 0 -9 0 -15 0 -5 9 -10 21 -10 12 0 23 -8 26 -20 4 -14 14 -20 32
-20 15 0 31 -3 35 -7 4 -5 33 -15 64 -23 51 -14 62 -14 105 1 26 9 55 23 65
31 31 28 60 38 109 38 26 0 55 5 63 10 13 9 11 14 -13 35 -15 14 -33 39 -39
56 -6 17 -14 26 -17 20 -4 -7 -11 -7 -21 0 -11 8 -12 12 -2 16 19 7 14 48 -10
86 -28 43 -98 69 -98 37 0 -11 9 -21 23 -23 12 -3 0 -5 -28 -4 -48 2 -50 1
-53 -25 -2 -16 -9 -28 -16 -28 -17 0 -36 -43 -36 -79 0 -72 -112 -45 -165 40
-31 48 -41 156 -21 231 19 73 43 128 55 128 6 0 11 9 11 20 0 20 -5 23 -27 13z"/>
<path d="M6074 6390 c-50 -20 -32 -50 46 -77 64 -23 90 -14 90 32 0 14 -77 55
-101 54 -8 0 -24 -4 -35 -9z"/>
<path d="M5600 5664 c-190 -27 -266 -36 -342 -41 -69 -5 -78 -3 -78 12 0 13
-5 15 -17 10 -10 -4 -30 -10 -44 -12 -14 -3 -38 -15 -53 -28 -15 -13 -35 -21
-45 -18 -12 3 -20 -2 -24 -14 -3 -10 -14 -30 -24 -46 -14 -21 -15 -31 -7 -45
20 -32 95 -82 123 -82 15 0 32 -5 38 -11 14 -14 67 -3 58 11 -4 6 7 10 24 10
19 0 31 -5 31 -13 0 -25 138 -79 260 -102 47 -8 99 -19 115 -23 52 -14 216 -5
308 17 93 22 126 36 196 84 44 30 44 30 20 42 -12 7 -28 11 -35 8 -7 -2 -25 2
-41 11 -15 8 -23 15 -16 16 7 0 21 9 31 20 19 21 137 60 179 60 13 0 23 3 23
8 0 4 18 6 40 4 23 -2 47 1 55 8 11 9 19 10 28 1 16 -13 48 -4 127 33 30 14
69 26 87 26 31 0 52 15 39 28 -7 6 -319 15 -526 15 -66 0 -127 -6 -164 -16
-54 -14 -63 -14 -95 0 -41 17 -139 43 -161 41 -8 0 -58 -6 -110 -14z m395
-124 c3 -6 -1 -7 -9 -4 -18 7 -21 14 -7 14 6 0 13 -4 16 -10z"/>
<path d="M4361 7894 c0 -11 3 -14 6 -6 3 7 2 16 -1 19 -3 4 -6 -2 -5 -13z"/>
<path d="M3318 4025 c2 -14 6 -25 8 -25 2 0 4 11 4 25 0 14 -4 25 -9 25 -4 0
-6 -11 -3 -25z"/>
<path d="M6156 3743 c-11 -11 -6 -23 9 -23 8 0 15 4 15 9 0 13 -16 22 -24 14z"/>
<path d="M5820 3714 c0 -3 6 -12 14 -20 21 -21 46 -17 46 6 0 16 -7 20 -30 20
-16 0 -30 -3 -30 -6z"/>
<path d="M6252 3608 c-19 -19 -14 -44 8 -45 16 -1 20 4 20 28 0 31 -9 36 -28
17z"/>
<path d="M6378 3563 c12 -2 32 -2 45 0 12 2 2 4 -23 4 -25 0 -35 -2 -22 -4z"/>
<path d="M8130 2480 c0 -5 5 -10 10 -10 6 0 10 5 10 10 0 6 -4 10 -10 10 -5 0
-10 -4 -10 -10z"/>
<path d="M8130 2451 c0 -5 5 -13 10 -16 6 -3 10 -2 10 4 0 5 -4 13 -10 16 -5
3 -10 2 -10 -4z"/>
<path d="M8306 1693 c11 -46 34 -83 50 -83 8 0 14 3 12 8 -38 76 -53 102 -60
102 -5 0 -5 -12 -2 -27z"/>
<path d="M3720 11624 c0 -58 23 -55 31 4 5 36 3 42 -13 42 -15 0 -18 -8 -18
-46z"/>
<path d="M4000 11664 c0 -6 62 -94 66 -94 1 0 -7 23 -19 50 -11 28 -27 50 -34
50 -7 0 -13 -3 -13 -6z"/>
<path d="M4130 11450 c0 -5 5 -10 11 -10 5 0 7 5 4 10 -3 6 -8 10 -11 10 -2 0
-4 -4 -4 -10z"/>
<path d="M4177 11373 c7 -20 73 -93 84 -93 15 0 -5 42 -35 75 -35 38 -59 46
-49 18z"/>
<path d="M4282 11368 c8 -12 20 -24 27 -26 18 -6 -9 36 -28 43 -11 5 -11 2 1
-17z"/>
<path d="M4305 11280 c-8 -13 4 -32 16 -25 12 8 12 35 0 35 -6 0 -13 -4 -16
-10z"/>
<path d="M7440 11242 c0 -6 8 -13 19 -17 10 -3 38 -25 62 -49 24 -23 58 -50
74 -59 17 -9 48 -34 69 -57 40 -40 56 -49 56 -29 0 14 -82 99 -96 99 -7 0 -18
10 -27 23 -8 13 -43 39 -78 58 -81 43 -79 43 -79 31z"/>
<path d="M7737 10999 c7 -7 15 -10 18 -7 3 3 -2 9 -12 12 -14 6 -15 5 -6 -5z"/>
<path d="M7994 10344 c5 -10 11 -28 14 -39 3 -11 12 -31 20 -45 13 -23 13 -23
9 -2 -7 31 -1 28 33 -20 41 -56 38 -26 -5 41 -36 57 -86 103 -71 65z"/>
<path d="M8110 10194 c0 -13 18 -39 24 -34 2 3 -2 14 -10 24 -8 11 -14 16 -14
10z"/>
<path d="M8210 10040 c0 -5 5 -10 11 -10 5 0 7 5 4 10 -3 6 -8 10 -11 10 -2 0
-4 -4 -4 -10z"/>
<path d="M8490 9241 c0 -33 24 -60 33 -37 6 16 -13 66 -25 66 -5 0 -8 -13 -8
-29z"/>
<path d="M9759 9088 c-1 -7 0 -17 1 -23 1 -5 3 -21 5 -34 1 -13 9 -27 16 -32
19 -12 96 -11 104 1 4 6 1 9 -5 8 -7 -2 -14 5 -15 14 -7 38 -46 78 -76 78 -16
0 -30 -6 -30 -12z"/>
<path d="M10240 6969 c-24 -54 -25 -83 -4 -190 20 -106 15 -199 -12 -236 -11
-15 -39 -37 -61 -48 -79 -42 -91 -55 -104 -112 -10 -45 -5 -56 39 -90 34 -26
45 -28 177 -36 77 -4 174 -10 215 -13 69 -5 78 -3 113 20 21 14 44 26 50 26 7
0 18 5 24 11 6 6 39 12 73 14 86 4 105 27 108 133 3 107 11 152 27 152 7 0 15
3 17 8 2 4 23 20 47 37 23 16 47 41 52 55 5 14 14 33 19 42 14 24 13 54 -3 70
-7 7 -16 21 -20 31 -17 44 -63 -23 -66 -95 -1 -25 -50 -78 -66 -71 -10 3 -15
-1 -15 -13 0 -14 -2 -16 -9 -6 -4 8 -28 16 -52 19 -89 12 -153 96 -148 198 5
106 -16 120 -181 120 -63 1 -134 5 -157 9 l-43 9 -20 -44z"/>
<path d="M2607 6573 c-4 -3 -7 -11 -7 -17 0 -6 5 -5 12 2 6 6 9 14 7 17 -3 3
-9 2 -12 -2z"/>
<path d="M2871 5496 c-6 -16 -10 -34 -8 -40 6 -17 29 33 24 52 -3 13 -7 10
-16 -12z"/>
<path d="M0 5394 l0 -66 31 6 c17 3 38 6 46 6 8 0 12 4 8 10 -3 5 12 14 34 20
29 8 39 15 38 29 -1 14 -14 22 -54 31 -29 6 -55 16 -58 21 -4 5 -15 9 -26 9
-17 0 -19 -7 -19 -66z"/>
<path d="M10280 5340 c0 -5 -7 -7 -15 -4 -11 5 -21 -7 -36 -40 -22 -51 -16
-81 10 -49 9 11 30 30 48 42 19 13 30 27 27 36 -7 16 -34 29 -34 15z"/>
<path d="M2494 5193 c-4 -16 -11 -33 -16 -40 -5 -7 -8 -22 -6 -35 3 -19 7 -16
26 24 12 26 22 54 22 62 0 27 -19 18 -26 -11z"/>
<path d="M2233 4948 c-70 -174 -206 -659 -190 -675 3 -3 11 15 17 38 6 24 38
123 72 219 109 316 151 470 130 470 -5 0 -18 -24 -29 -52z"/>
<path d="M3041 4745 c0 -22 6 -53 14 -70 l15 -30 -4 35 c-3 19 -9 51 -14 70
l-10 35 -1 -40z"/>
<path d="M491 4415 c0 -16 3 -24 6 -17 2 6 9 10 14 6 5 -3 9 5 8 18 0 13 -3
17 -6 9 -5 -11 -7 -11 -14 0 -6 10 -8 5 -8 -16z"/>
<path d="M2002 4120 c0 -14 2 -19 5 -12 2 6 2 18 0 25 -3 6 -5 1 -5 -13z"/>
<path d="M1231 4041 c-8 -6 -9 -11 -3 -15 6 -3 14 -1 17 5 9 14 2 20 -14 10z"/>
<path d="M1957 3213 c-11 -11 -8 -157 4 -192 6 -17 17 -31 25 -31 12 0 11 5
-2 26 -13 19 -17 47 -17 115 0 49 0 89 -2 89 -1 0 -5 -3 -8 -7z"/>
<path d="M4070 2891 c0 -5 7 -14 15 -21 16 -14 18 -10 9 14 -6 17 -24 22 -24
7z"/>
<path d="M2352 2820 c0 -14 2 -19 5 -12 2 6 2 18 0 25 -3 6 -5 1 -5 -13z"/>
<path d="M5800 2820 c0 -18 7 -20 80 -20 73 0 80 2 80 20 0 18 -7 20 -80 20
-73 0 -80 -2 -80 -20z"/>
<path d="M5838 2763 c23 -2 61 -2 85 0 23 2 4 4 -43 4 -47 0 -66 -2 -42 -4z"/>
<path d="M4800 2610 c0 -5 5 -10 10 -10 6 0 10 5 10 10 0 6 -4 10 -10 10 -5 0
-10 -4 -10 -10z"/>
<path d="M2312 2460 c0 -14 2 -19 5 -12 2 6 2 18 0 25 -3 6 -5 1 -5 -13z"/>
<path d="M2291 2355 c-1 -22 -8 -83 -15 -135 -8 -52 -11 -99 -7 -103 12 -12
33 160 29 223 -4 46 -5 48 -7 15z"/>
<path d="M4400 2352 c0 -27 41 -123 62 -146 10 -11 18 -26 18 -33 0 -8 6 -16
14 -19 8 -3 12 -12 9 -20 -3 -8 0 -14 6 -14 6 0 11 -7 11 -15 0 -8 6 -15 14
-15 8 0 17 -8 20 -18 3 -9 16 -23 28 -31 21 -13 20 -11 -5 20 -15 19 -32 45
-38 59 -23 51 -50 99 -69 122 -9 9 -24 40 -34 68 -19 54 -36 73 -36 42z"/>
<path d="M6340 2330 c0 -5 7 -10 16 -10 8 0 12 5 9 10 -3 6 -10 10 -16 10 -5
0 -9 -4 -9 -10z"/>
<path d="M605 2203 c-78 -13 -132 -27 -144 -37 -8 -6 -30 -11 -50 -11 -34 0
-36 -2 -33 -30 3 -25 2 -27 -11 -16 -13 10 -20 9 -41 -4 -14 -10 -26 -20 -27
-24 0 -3 -3 -26 -5 -51 -3 -25 -12 -58 -20 -74 -8 -16 -14 -39 -14 -51 0 -13
-7 -28 -15 -35 -8 -7 -15 -22 -15 -35 0 -12 -7 -36 -15 -52 -8 -17 -16 -56
-18 -87 -1 -31 -5 -56 -9 -56 -5 0 -8 -18 -8 -40 0 -29 4 -40 15 -40 8 0 15
-4 15 -9 0 -31 -23 -120 -41 -159 -12 -26 -22 -50 -21 -54 5 -25 -99 -249
-130 -280 -15 -15 -18 -36 -18 -115 l1 -98 21 50 c11 28 60 136 108 240 93
201 172 396 238 585 74 211 169 383 234 423 50 30 133 33 192 8 27 -12 51 -19
55 -16 20 20 -187 78 -244 68z"/>
<path d="M0 2120 c0 -33 3 -40 20 -40 13 0 20 -7 20 -19 0 -29 14 -33 39 -10
12 12 29 18 38 15 10 -4 14 -2 10 7 -3 8 3 20 14 28 33 24 24 44 -21 45 -28 1
-40 -3 -40 -12 0 -22 -27 -16 -33 6 -3 12 -14 20 -26 20 -18 0 -21 -6 -21 -40z
m74 -17 c-5 -5 -11 -11 -14 -15 -3 -3 -14 0 -24 8 -19 13 -18 14 14 14 18 0
29 -3 24 -7z"/>
<path d="M2252 2035 c-1 -22 -5 -58 -8 -80 -5 -30 -4 -37 5 -29 8 7 11 36 8
80 -1 38 -4 51 -5 29z"/>
<path d="M1026 2006 c3 -8 13 -17 21 -20 26 -10 25 0 -1 18 -20 13 -24 13 -20
2z"/>
<path d="M11126 2012 c-3 -6 -1 -14 5 -17 15 -10 25 3 12 16 -7 7 -13 7 -17 1z"/>
<path d="M1606 1988 c-3 -13 -6 -35 -6 -50 0 -15 -4 -29 -9 -32 -4 -3 -6 -29
-4 -58 3 -29 1 -48 -4 -41 -4 6 -9 -20 -10 -60 -3 -91 -6 -110 -17 -118 -5 -4
-5 -20 -2 -35 17 -66 32 19 61 349 6 67 2 86 -9 45z"/>
<path d="M1080 1955 c0 -14 134 -120 167 -132 23 -9 -45 56 -97 92 -22 15 -40
32 -40 36 0 5 -7 9 -15 9 -8 0 -15 -2 -15 -5z"/>
<path d="M2232 1875 c0 -16 2 -22 5 -12 2 9 2 23 0 30 -3 6 -5 -1 -5 -18z"/>
<path d="M2221 1830 c-15 -150 -41 -471 -41 -521 0 -65 0 -66 25 -61 28 5 29
6 15 32 -9 17 2 92 26 178 9 30 23 28 35 -7 6 -17 16 -28 23 -25 10 4 76 -84
76 -101 0 -2 10 -15 23 -28 36 -38 57 -67 57 -77 0 -6 6 -10 13 -10 17 0 39
-38 33 -58 -4 -12 6 -25 32 -42 63 -43 68 -44 35 -8 -18 18 -33 37 -33 40 0 7
-98 171 -130 218 -47 68 -92 142 -130 214 -38 71 -43 88 -50 175 -4 53 -8 89
-9 81z"/>
<path d="M4732 1603 c6 -21 21 -59 34 -84 19 -38 28 -47 49 -45 25 1 30 15 17
48 -9 20 -94 118 -104 118 -3 0 -2 -17 4 -37z"/>
<path d="M161 1464 c0 -11 3 -14 6 -6 3 7 2 16 -1 19 -3 4 -6 -2 -5 -13z"/>
<path d="M7328 1053 c-30 -8 -20 -40 25 -80 68 -60 95 -102 103 -161 3 -28 9
-52 13 -52 16 0 124 81 173 130 31 30 67 64 82 74 28 20 33 40 14 60 -10 10
-17 7 -36 -16 -23 -27 -62 -39 -62 -18 0 6 5 10 11 10 5 0 7 5 3 11 -3 6 -9 7
-13 3 -3 -5 -20 -17 -38 -27 -31 -17 -32 -17 -58 7 -15 14 -30 25 -34 24 -3
-1 -13 1 -21 5 -13 4 -62 16 -130 31 -8 2 -23 1 -32 -1z"/>
<path d="M4006 966 c3 -8 12 -12 20 -9 21 8 17 23 -6 23 -13 0 -18 -5 -14 -14z"/>
<path d="M4018 905 c4 -25 35 -35 47 -15 3 6 -1 7 -9 4 -11 -4 -16 0 -16 15 0
12 -6 21 -14 21 -9 0 -12 -8 -8 -25z"/>
<path d="M2848 868 c12 -6 22 -14 22 -18 0 -5 7 -11 16 -14 15 -6 15 -4 3 11
-19 25 -32 33 -49 32 -9 0 -6 -5 8 -11z"/>
<path d="M4053 873 c-7 -2 -13 -11 -13 -18 0 -7 -6 -16 -12 -19 -10 -5 -10 -7
0 -12 6 -3 12 -14 12 -25 0 -11 7 -19 16 -19 11 0 14 -6 9 -20 -4 -11 -2 -20
4 -20 6 0 11 5 11 10 0 6 4 10 9 10 5 0 12 -17 15 -37 10 -56 17 -74 25 -69 7
5 37 -38 41 -59 7 -27 25 -55 36 -55 6 0 15 -12 18 -26 4 -14 18 -37 31 -50
14 -13 25 -27 25 -29 0 -3 0 -8 0 -12 0 -5 13 -22 29 -38 24 -26 50 -65 57
-85 1 -3 5 -15 9 -27 4 -13 12 -20 19 -16 6 4 5 0 -2 -9 -9 -11 -10 -18 -2
-23 5 -3 10 -1 10 6 0 8 4 8 15 -1 8 -7 15 -19 15 -26 0 -7 6 -11 14 -8 11 4
26 -13 30 -36 1 -3 5 -11 9 -17 5 -7 6 -17 3 -22 -3 -5 1 -11 9 -15 8 -3 15
-11 15 -17 0 -15 30 -38 50 -39 8 0 20 -10 25 -23 9 -21 17 -22 119 -25 105
-3 109 -2 94 15 -9 10 -19 28 -22 40 -5 14 -12 20 -22 16 -7 -3 -14 -1 -14 4
0 6 -13 24 -29 40 -16 17 -32 45 -36 62 -4 17 -13 31 -20 31 -8 0 -39 39 -70
86 -31 47 -65 88 -75 92 -19 7 -20 9 -20 37 0 8 -7 15 -16 15 -8 0 -20 14 -26
31 -7 20 -15 28 -25 25 -8 -3 -11 -2 -8 4 3 5 -8 22 -25 38 -16 16 -30 35 -30
43 0 8 -12 21 -28 30 -15 8 -34 29 -42 45 -8 16 -21 35 -27 42 -7 7 -13 17
-13 20 0 4 -10 12 -22 17 -14 6 -22 17 -20 29 2 10 -1 15 -6 12 -14 -8 -43 4
-41 18 4 32 -3 46 -21 46 -11 0 -20 4 -20 8 0 7 -46 34 -53 31 -1 0 -8 -3 -14
-6z m84 -105 c-2 -7 -1 -23 4 -35 5 -15 4 -23 -7 -27 -11 -4 -14 4 -14 34 0
22 5 40 11 40 6 0 9 -6 6 -12z"/>
<path d="M7165 820 c-8 -13 -23 -158 -25 -240 -1 -14 -8 -44 -17 -68 -9 -23
-13 -45 -10 -49 10 -9 43 23 77 75 33 49 33 69 5 192 -8 36 -16 74 -17 85 -3
17 -5 18 -13 5z"/>
<path d="M3060 710 c0 -5 5 -10 10 -10 6 0 10 5 10 10 0 6 -4 10 -10 10 -5 0
-10 -4 -10 -10z"/>
<path d="M7665 560 c-3 -5 -1 -10 4 -10 6 0 11 5 11 10 0 6 -2 10 -4 10 -3 0
-8 -4 -11 -10z"/>
<path d="M3386 487 c3 -10 9 -15 12 -12 3 3 0 11 -7 18 -10 9 -11 8 -5 -6z"/>
<path d="M1360 474 c0 -3 21 -33 48 -67 26 -34 57 -77 69 -97 19 -29 22 -31
23 -13 0 11 -29 57 -65 102 -62 76 -75 89 -75 75z"/>
<path d="M3410 471 c0 -5 7 -12 16 -15 14 -5 15 -4 4 9 -14 17 -20 19 -20 6z"/>
<path d="M3470 421 c0 -5 18 -24 41 -41 22 -18 88 -78 147 -135 59 -56 141
-134 182 -173 59 -56 82 -72 105 -72 30 0 30 0 -30 60 -63 63 -119 119 -213
208 -30 28 -63 52 -74 52 -20 0 -68 42 -68 59 0 6 -6 8 -12 6 -7 -3 -26 6 -42
20 -32 28 -36 29 -36 16z"/>
<path d="M5240 25 c0 -8 -6 -12 -14 -9 -8 3 -17 1 -21 -5 -4 -7 7 -11 29 -11
29 0 36 4 36 20 0 11 -7 20 -15 20 -8 0 -15 -7 -15 -15z"/>
</g>
</svg>
